<svg width="283" height="60" viewBox="0 0 283 60" fill="none" xmlns="http://www.w3.org/2000/svg">
<rect width="283" height="60" rx="4" fill="#F0F4F7"/>
<path d="M65.7471 27.3979H64.7V27.3442H53V32.5163H60.347C59.2751 35.5272 56.3949 37.6885 53 37.6885C48.6924 37.6885 45.2 34.2147 45.2 29.9303C45.2 25.6458 48.6924 22.1721 53 22.1721C54.9883 22.1721 56.7973 22.9182 58.1747 24.1369L61.8517 20.4795C59.5299 18.3273 56.4242 17 53 17C45.8207 17 40 22.7895 40 29.9303C40 37.071 45.8207 42.8606 53 42.8606C60.1792 42.8606 66 37.071 66 29.9303C66 29.0633 65.9103 28.217 65.7471 27.3979Z" fill="#FFC107"/>
<path d="M41.7528 23.9119L46.024 27.0274C47.1797 24.1815 49.9786 22.1721 53.2539 22.1721C55.2423 22.1721 57.0512 22.9182 58.4286 24.1369L62.1056 20.4795C59.7838 18.3273 56.6781 17 53.2539 17C48.2606 17 43.9303 19.8039 41.7528 23.9119Z" fill="#FF3D00"/>
<path d="M52.7418 43C56.0997 43 59.1508 41.7218 61.4576 39.6433L57.4341 36.2568C56.0851 37.2773 54.4366 37.8292 52.7418 37.8279C49.3605 37.8279 46.4894 35.6834 45.4078 32.6907L41.1685 35.9394C43.32 40.1269 47.6893 43 52.7418 43Z" fill="#4CAF50"/>
<path d="M65.6012 27.5141H64.554V27.4604H52.854V32.6326H60.201C59.6882 34.0655 58.7647 35.3177 57.5444 36.2343L57.5464 36.233L61.5699 39.6194C61.2852 39.8768 65.854 36.5117 65.854 30.0465C65.854 29.1795 65.7643 28.3332 65.6012 27.5141Z" fill="#1976D2"/>
<path d="M82.59 36.5V23.4091H84.9615V34.5121H90.7271V36.5H82.59ZM96.9657 36.6918C96.0069 36.6918 95.176 36.4808 94.4728 36.0589C93.7697 35.6371 93.2243 35.0469 92.8365 34.2884C92.4529 33.5256 92.2612 32.6392 92.2612 31.6293C92.2612 30.6151 92.4529 29.7287 92.8365 28.9702C93.2243 28.2074 93.7697 27.6151 94.4728 27.1932C95.176 26.767 96.0069 26.554 96.9657 26.554C97.9245 26.554 98.7555 26.767 99.4586 27.1932C100.166 27.6151 100.711 28.2074 101.095 28.9702C101.479 29.7287 101.67 30.6151 101.67 31.6293C101.67 32.6392 101.479 33.5256 101.095 34.2884C100.711 35.0469 100.166 35.6371 99.4586 36.0589C98.7555 36.4808 97.9245 36.6918 96.9657 36.6918ZM96.9785 34.8381C97.5027 34.8381 97.9373 34.6953 98.2825 34.4098C98.6319 34.1243 98.8919 33.7386 99.0623 33.2528C99.237 32.7628 99.3244 32.2195 99.3244 31.6229C99.3244 31.022 99.237 30.4787 99.0623 29.9929C98.8919 29.5028 98.6319 29.1129 98.2825 28.8232C97.9373 28.5334 97.5027 28.3885 96.9785 28.3885C96.4501 28.3885 96.0091 28.5334 95.6554 28.8232C95.3059 29.1129 95.0439 29.5028 94.8691 29.9929C94.6944 30.4787 94.6071 31.022 94.6071 31.6229C94.6071 32.2195 94.6944 32.7628 94.8691 33.2528C95.0439 33.7386 95.3059 34.1243 95.6554 34.4098C96.0091 34.6953 96.4501 34.8381 96.9785 34.8381ZM107.904 40.348C106.656 40.348 105.673 40.1072 104.957 39.6257C104.246 39.1484 103.783 38.5753 103.57 37.9062L105.654 37.4013C105.795 37.6697 106.038 37.9361 106.383 38.2003C106.728 38.4645 107.248 38.5966 107.942 38.5966C108.603 38.5966 109.146 38.4389 109.572 38.1236C110.003 37.8082 110.218 37.299 110.218 36.5959V34.7358H110.103C109.984 34.9744 109.809 35.2195 109.579 35.4709C109.353 35.7223 109.053 35.9332 108.678 36.1037C108.307 36.2741 107.84 36.3594 107.278 36.3594C106.523 36.3594 105.839 36.1825 105.226 35.8288C104.616 35.4709 104.131 34.9361 103.768 34.2244C103.411 33.5128 103.232 32.6243 103.232 31.5589C103.232 30.4808 103.411 29.571 103.768 28.8295C104.131 28.0838 104.619 27.5192 105.232 27.1357C105.846 26.7479 106.53 26.554 107.284 26.554C107.864 26.554 108.339 26.652 108.71 26.848C109.085 27.0398 109.381 27.272 109.598 27.5447C109.82 27.8132 109.988 28.0668 110.103 28.3054H110.231V26.6818H112.513V36.6598C112.513 37.4822 112.313 38.1662 111.912 38.7116C111.511 39.2614 110.964 39.6705 110.269 39.9389C109.579 40.2116 108.79 40.348 107.904 40.348ZM107.923 34.544C108.661 34.544 109.229 34.2798 109.63 33.7514C110.031 33.2187 110.231 32.4837 110.231 31.5462C110.231 30.6172 110.033 29.8693 109.636 29.3026C109.24 28.7358 108.669 28.4524 107.923 28.4524C107.152 28.4524 106.57 28.7464 106.178 29.3345C105.786 29.9183 105.59 30.6555 105.59 31.5462C105.59 32.4496 105.788 33.1761 106.185 33.7259C106.581 34.2713 107.161 34.544 107.923 34.544ZM119.349 36.5V26.6818H121.663V36.5H119.349ZM120.512 25.2884C120.142 25.2884 119.824 25.1669 119.56 24.924C119.3 24.6768 119.17 24.3807 119.17 24.0355C119.17 23.6861 119.3 23.3899 119.56 23.147C119.824 22.8999 120.142 22.7763 120.512 22.7763C120.879 22.7763 121.192 22.8999 121.452 23.147C121.716 23.3899 121.848 23.6861 121.848 24.0355C121.848 24.3807 121.716 24.6768 121.452 24.924C121.192 25.1669 120.879 25.2884 120.512 25.2884ZM126.356 30.7472V36.5H124.042V26.6818H126.254V28.3501H126.369C126.595 27.8047 126.955 27.37 127.449 27.0462C127.948 26.718 128.564 26.554 129.297 26.554C130.311 26.554 131.125 26.8757 131.738 27.5192C132.356 28.1626 132.663 29.0724 132.659 30.2486V36.5H130.345V30.6065C130.345 29.9503 130.175 29.4368 129.834 29.0661C129.497 28.6953 129.03 28.5099 128.434 28.5099C127.824 28.5099 127.326 28.706 126.938 29.098C126.55 29.4858 126.356 30.0355 126.356 30.7472ZM141.502 36.5L138.728 26.6818H141.087L142.813 33.5852H142.902L144.666 26.6818H146.999L148.764 33.5469H148.86L150.56 26.6818H152.925L150.144 36.5H147.735L145.894 29.8651H145.759L143.919 36.5H141.502ZM154.54 36.5V26.6818H156.854V36.5H154.54ZM155.704 25.2884C155.333 25.2884 155.016 25.1669 154.751 24.924C154.491 24.6768 154.362 24.3807 154.362 24.0355C154.362 23.6861 154.491 23.3899 154.751 23.147C155.016 22.8999 155.333 22.7763 155.704 22.7763C156.07 22.7763 156.384 22.8999 156.643 23.147C156.908 23.3899 157.04 23.6861 157.04 24.0355C157.04 24.3807 156.908 24.6768 156.643 24.924C156.384 25.1669 156.07 25.2884 155.704 25.2884ZM164.137 26.6818V28.4716H162.2V33.5469C162.2 34.0114 162.302 34.3182 162.507 34.4673C162.711 34.6122 162.958 34.6847 163.248 34.6847C163.393 34.6847 163.525 34.674 163.644 34.6527C163.768 34.6314 163.862 34.6122 163.926 34.5952L164.316 36.4041C164.192 36.4467 164.015 36.4936 163.785 36.5447C163.559 36.5959 163.282 36.6257 162.954 36.6342C162.085 36.6598 161.354 36.4467 160.762 35.995C160.173 35.5433 159.882 34.8551 159.886 33.9304V28.4716H158.492V26.6818H159.886V24.3295H162.2V26.6818H164.137ZM168.597 30.7472V36.5H166.283V23.4091H168.545V28.3501H168.661C168.886 27.7919 169.24 27.353 169.722 27.0334C170.207 26.7138 170.827 26.554 171.582 26.554C172.6 26.554 173.418 26.8736 174.036 27.5128C174.654 28.152 174.963 29.0639 174.963 30.2486V36.5H172.649V30.6065C172.649 29.946 172.479 29.4325 172.138 29.0661C171.801 28.6953 171.328 28.5099 170.719 28.5099C170.101 28.5099 169.592 28.706 169.191 29.098C168.795 29.4858 168.597 30.0355 168.597 30.7472ZM190.659 27.5895C190.45 26.8949 190.081 26.3494 189.553 25.9531C189.029 25.5568 188.373 25.3587 187.584 25.3587C186.881 25.3587 186.255 25.5355 185.705 25.8892C185.155 26.2429 184.723 26.7607 184.407 27.4425C184.096 28.1243 183.941 28.9574 183.941 29.9418C183.941 31.4247 184.282 32.5646 184.963 33.3615C185.65 34.1541 186.54 34.5504 187.635 34.5504C188.62 34.5504 189.404 34.2756 189.988 33.7259C190.571 33.1761 190.872 32.4347 190.889 31.5014H187.872V29.6477H193.184V31.2202C193.184 32.3452 192.945 33.3168 192.468 34.1349C191.99 34.9489 191.334 35.5774 190.499 36.0206C189.664 36.4595 188.705 36.679 187.623 36.679C186.421 36.679 185.364 36.4084 184.452 35.8672C183.54 35.3217 182.828 34.5483 182.317 33.5469C181.81 32.5412 181.556 31.348 181.556 29.9673C181.556 28.5611 181.819 27.3551 182.343 26.3494C182.867 25.3437 183.581 24.5724 184.484 24.0355C185.387 23.4986 186.41 23.2301 187.552 23.2301C188.52 23.2301 189.395 23.4155 190.179 23.7862C190.963 24.157 191.609 24.6705 192.116 25.3267C192.623 25.9787 192.943 26.733 193.075 27.5895H190.659ZM199.657 36.6918C198.698 36.6918 197.867 36.4808 197.164 36.0589C196.461 35.6371 195.916 35.0469 195.528 34.2884C195.144 33.5256 194.953 32.6392 194.953 31.6293C194.953 30.6151 195.144 29.7287 195.528 28.9702C195.916 28.2074 196.461 27.6151 197.164 27.1932C197.867 26.767 198.698 26.554 199.657 26.554C200.616 26.554 201.447 26.767 202.15 27.1932C202.857 27.6151 203.403 28.2074 203.786 28.9702C204.17 29.7287 204.362 30.6151 204.362 31.6293C204.362 32.6392 204.17 33.5256 203.786 34.2884C203.403 35.0469 202.857 35.6371 202.15 36.0589C201.447 36.4808 200.616 36.6918 199.657 36.6918ZM199.67 34.8381C200.194 34.8381 200.629 34.6953 200.974 34.4098C201.323 34.1243 201.583 33.7386 201.754 33.2528C201.928 32.7628 202.016 32.2195 202.016 31.6229C202.016 31.022 201.928 30.4787 201.754 29.9929C201.583 29.5028 201.323 29.1129 200.974 28.8232C200.629 28.5334 200.194 28.3885 199.67 28.3885C199.142 28.3885 198.7 28.5334 198.347 28.8232C197.997 29.1129 197.735 29.5028 197.561 29.9929C197.386 30.4787 197.298 31.022 197.298 31.6229C197.298 32.2195 197.386 32.7628 197.561 33.2528C197.735 33.7386 197.997 34.1243 198.347 34.4098C198.7 34.6953 199.142 34.8381 199.67 34.8381ZM210.608 36.6918C209.65 36.6918 208.819 36.4808 208.115 36.0589C207.412 35.6371 206.867 35.0469 206.479 34.2884C206.096 33.5256 205.904 32.6392 205.904 31.6293C205.904 30.6151 206.096 29.7287 206.479 28.9702C206.867 28.2074 207.412 27.6151 208.115 27.1932C208.819 26.767 209.65 26.554 210.608 26.554C211.567 26.554 212.398 26.767 213.101 27.1932C213.809 27.6151 214.354 28.2074 214.738 28.9702C215.121 29.7287 215.313 30.6151 215.313 31.6293C215.313 32.6392 215.121 33.5256 214.738 34.2884C214.354 35.0469 213.809 35.6371 213.101 36.0589C212.398 36.4808 211.567 36.6918 210.608 36.6918ZM210.621 34.8381C211.145 34.8381 211.58 34.6953 211.925 34.4098C212.275 34.1243 212.534 33.7386 212.705 33.2528C212.88 32.7628 212.967 32.2195 212.967 31.6229C212.967 31.022 212.88 30.4787 212.705 29.9929C212.534 29.5028 212.275 29.1129 211.925 28.8232C211.58 28.5334 211.145 28.3885 210.621 28.3885C210.093 28.3885 209.652 28.5334 209.298 28.8232C208.949 29.1129 208.686 29.5028 208.512 29.9929C208.337 30.4787 208.25 31.022 208.25 31.6229C208.25 32.2195 208.337 32.7628 208.512 33.2528C208.686 33.7386 208.949 34.1243 209.298 34.4098C209.652 34.6953 210.093 34.8381 210.621 34.8381ZM221.547 40.348C220.298 40.348 219.316 40.1072 218.6 39.6257C217.888 39.1484 217.426 38.5753 217.213 37.9062L219.297 37.4013C219.437 37.6697 219.68 37.9361 220.025 38.2003C220.371 38.4645 220.89 38.5966 221.585 38.5966C222.246 38.5966 222.789 38.4389 223.215 38.1236C223.645 37.8082 223.861 37.299 223.861 36.5959V34.7358H223.746C223.626 34.9744 223.452 35.2195 223.221 35.4709C222.996 35.7223 222.695 35.9332 222.32 36.1037C221.949 36.2741 221.483 36.3594 220.92 36.3594C220.166 36.3594 219.482 36.1825 218.868 35.8288C218.259 35.4709 217.773 34.9361 217.411 34.2244C217.053 33.5128 216.874 32.6243 216.874 31.5589C216.874 30.4808 217.053 29.571 217.411 28.8295C217.773 28.0838 218.261 27.5192 218.875 27.1357C219.488 26.7479 220.172 26.554 220.927 26.554C221.506 26.554 221.981 26.652 222.352 26.848C222.727 27.0398 223.023 27.272 223.241 27.5447C223.462 27.8132 223.631 28.0668 223.746 28.3054H223.873V26.6818H226.155V36.6598C226.155 37.4822 225.955 38.1662 225.555 38.7116C225.154 39.2614 224.606 39.6705 223.912 39.9389C223.221 40.2116 222.433 40.348 221.547 40.348ZM221.566 34.544C222.303 34.544 222.872 34.2798 223.273 33.7514C223.673 33.2187 223.873 32.4837 223.873 31.5462C223.873 30.6172 223.675 29.8693 223.279 29.3026C222.883 28.7358 222.312 28.4524 221.566 28.4524C220.795 28.4524 220.213 28.7464 219.821 29.3345C219.429 29.9183 219.233 30.6555 219.233 31.5462C219.233 32.4496 219.431 33.1761 219.827 33.7259C220.224 34.2713 220.803 34.544 221.566 34.544ZM230.841 23.4091V36.5H228.527V23.4091H230.841ZM237.567 36.6918C236.582 36.6918 235.732 36.4851 235.016 36.0717C234.305 35.6584 233.757 35.0746 233.374 34.3203C232.99 33.5661 232.798 32.6754 232.798 31.6484C232.798 30.6385 232.99 29.7521 233.374 28.9893C233.757 28.2223 234.296 27.6257 234.991 27.1996C235.69 26.7692 236.508 26.554 237.445 26.554C238.251 26.554 238.994 26.7287 239.676 27.0781C240.358 27.4233 240.903 27.9624 241.312 28.6953C241.726 29.424 241.933 30.3636 241.933 31.5142V32.2237H235.093C235.106 33.0632 235.338 33.7173 235.79 34.1861C236.246 34.6548 236.849 34.8892 237.599 34.8892C238.097 34.8892 238.528 34.7827 238.89 34.5696C239.256 34.3523 239.518 34.0369 239.676 33.6236L241.837 33.8665C241.632 34.7187 241.155 35.4027 240.405 35.9183C239.659 36.4339 238.713 36.6918 237.567 36.6918ZM235.099 30.6641H239.714C239.71 29.995 239.501 29.4432 239.088 29.0085C238.679 28.5739 238.142 28.3565 237.477 28.3565C236.787 28.3565 236.227 28.5845 235.796 29.0405C235.366 29.4964 235.134 30.0376 235.099 30.6641Z" fill="#798895"/>
</svg>
