<svg width="285" height="60" viewBox="0 0 285 60" fill="none" xmlns="http://www.w3.org/2000/svg">
<rect width="285" height="60" rx="4" fill="#F0F4F7"/>
<path d="M56.7471 27.3979H55.7V27.3442H44V32.5163H51.347C50.2751 35.5272 47.3949 37.6885 44 37.6885C39.6924 37.6885 36.2 34.2147 36.2 29.9303C36.2 25.6458 39.6924 22.1721 44 22.1721C45.9883 22.1721 47.7973 22.9182 49.1747 24.1369L52.8517 20.4795C50.5299 18.3273 47.4242 17 44 17C36.8207 17 31 22.7895 31 29.9303C31 37.071 36.8207 42.8606 44 42.8606C51.1792 42.8606 57 37.071 57 29.9303C57 29.0633 56.9103 28.217 56.7471 27.3979Z" fill="#FFC107"/>
<path d="M32.7529 23.9119L37.0241 27.0274C38.1798 24.1815 40.9787 22.1721 44.254 22.1721C46.2424 22.1721 48.0513 22.9182 49.4287 24.1369L53.1057 20.4795C50.7839 18.3273 47.6782 17 44.254 17C39.2607 17 34.9304 19.8039 32.7529 23.9119Z" fill="#FF3D00"/>
<path d="M43.7417 43C47.0996 43 50.1507 41.7218 52.4576 39.6433L48.4341 36.2569C47.085 37.2773 45.4366 37.8292 43.7417 37.8279C40.3604 37.8279 37.4894 35.6834 36.4078 32.6907L32.1685 35.9394C34.32 40.1269 38.6893 43 43.7417 43Z" fill="#4CAF50"/>
<path d="M56.6012 27.5141H55.554V27.4605H43.854V32.6326H51.201C50.6882 34.0655 49.7647 35.3177 48.5444 36.2343L48.5464 36.233L52.5699 39.6195C52.2852 39.8768 56.854 36.5117 56.854 30.0465C56.854 29.1795 56.7643 28.3333 56.6012 27.5141Z" fill="#1976D2"/>
<path d="M73.5529 36.5H75.9244V31.706H78.3406L80.9102 36.5H83.5565L80.7248 31.3097C82.2653 30.6896 83.0771 29.3729 83.0771 27.5959C83.0771 25.0966 81.4663 23.4091 78.462 23.4091H73.5529V36.5ZM75.9244 29.7372V25.3906H78.0977C79.8683 25.3906 80.6609 26.2024 80.6609 27.5959C80.6609 28.9893 79.8683 29.7372 78.1104 29.7372H75.9244ZM89.3636 36.6918C91.652 36.6918 93.2244 35.5732 93.6335 33.8665L91.473 33.6236C91.1598 34.4545 90.3928 34.8892 89.3956 34.8892C87.8999 34.8892 86.9091 33.9048 86.8899 32.2237H93.7294V31.5142C93.7294 28.0689 91.6584 26.554 89.2422 26.554C86.4297 26.554 84.5952 28.6186 84.5952 31.6484C84.5952 34.7294 86.4041 36.6918 89.3636 36.6918ZM86.8963 30.6641C86.9666 29.4112 87.8935 28.3565 89.2741 28.3565C90.6037 28.3565 91.4986 29.3281 91.5114 30.6641H86.8963ZM99.9569 40.348C102.61 40.348 104.566 39.1335 104.566 36.6598V26.6818H102.284V28.3054H102.156C101.804 27.5959 101.069 26.554 99.3368 26.554C97.0676 26.554 95.2843 28.331 95.2843 31.5589C95.2843 34.7614 97.0676 36.3594 99.3304 36.3594C101.012 36.3594 101.798 35.4581 102.156 34.7358H102.271V36.5959C102.271 38.0021 101.312 38.5966 99.9952 38.5966C98.6017 38.5966 97.9881 37.9382 97.7069 37.4013L95.623 37.9062C96.0449 39.2422 97.4576 40.348 99.9569 40.348ZM99.976 34.544C98.4483 34.544 97.6429 33.3551 97.6429 31.5462C97.6429 29.7628 98.4355 28.4524 99.976 28.4524C101.465 28.4524 102.284 29.6861 102.284 31.5462C102.284 33.419 101.453 34.544 99.976 34.544ZM106.937 36.5H109.251V26.6818H106.937V36.5ZM108.1 25.2884C108.835 25.2884 109.436 24.7259 109.436 24.0355C109.436 23.3388 108.835 22.7763 108.1 22.7763C107.359 22.7763 106.758 23.3388 106.758 24.0355C106.758 24.7259 107.359 25.2884 108.1 25.2884ZM119.39 29.277C119.071 27.6151 117.741 26.554 115.44 26.554C113.075 26.554 111.464 27.7173 111.471 29.5327C111.464 30.9645 112.346 31.9105 114.232 32.3004L115.907 32.652C116.808 32.8501 117.23 33.2145 117.23 33.7706C117.23 34.4418 116.501 34.9467 115.402 34.9467C114.341 34.9467 113.65 34.4865 113.452 33.6044L111.196 33.8217C111.483 35.6243 112.998 36.6918 115.408 36.6918C117.863 36.6918 119.595 35.4197 119.601 33.5597C119.595 32.1598 118.694 31.3033 116.84 30.9006L115.165 30.5426C114.168 30.3189 113.772 29.9737 113.778 29.4048C113.772 28.7401 114.507 28.2798 115.472 28.2798C116.539 28.2798 117.102 28.8615 117.281 29.5071L119.39 29.277ZM126.412 26.6818H124.475V24.3295H122.161V26.6818H120.768V28.4716H122.161V33.9304C122.148 35.7777 123.491 36.6854 125.229 36.6342C125.888 36.6151 126.342 36.4872 126.591 36.4041L126.201 34.5952C126.073 34.6271 125.811 34.6847 125.523 34.6847C124.942 34.6847 124.475 34.4801 124.475 33.5469V28.4716H126.412V26.6818ZM132.588 36.6918C134.877 36.6918 136.449 35.5732 136.858 33.8665L134.698 33.6236C134.384 34.4545 133.617 34.8892 132.62 34.8892C131.124 34.8892 130.134 33.9048 130.115 32.2237H136.954V31.5142C136.954 28.0689 134.883 26.554 132.467 26.554C129.654 26.554 127.82 28.6186 127.82 31.6484C127.82 34.7294 129.629 36.6918 132.588 36.6918ZM130.121 30.6641C130.191 29.4112 131.118 28.3565 132.499 28.3565C133.828 28.3565 134.723 29.3281 134.736 30.6641H130.121ZM138.912 36.5H141.225V30.728C141.225 29.4815 142.165 28.5994 143.437 28.5994C143.827 28.5994 144.313 28.6697 144.511 28.7337V26.6051C144.3 26.5668 143.936 26.5412 143.68 26.5412C142.555 26.5412 141.615 27.1804 141.257 28.3182H141.155V26.6818H138.912V36.5ZM152.539 36.5H154.956L156.797 29.8651H156.931L158.772 36.5H161.181L163.962 26.6818H161.597L159.897 33.5469H159.801L158.037 26.6818H155.703L153.939 33.5852H153.85L152.124 26.6818H149.765L152.539 36.5ZM165.578 36.5H167.892V26.6818H165.578V36.5ZM166.741 25.2884C167.476 25.2884 168.077 24.7259 168.077 24.0355C168.077 23.3388 167.476 22.7763 166.741 22.7763C165.999 22.7763 165.399 23.3388 165.399 24.0355C165.399 24.7259 165.999 25.2884 166.741 25.2884ZM175.174 26.6818H173.237V24.3295H170.923V26.6818H169.529V28.4716H170.923V33.9304C170.91 35.7777 172.252 36.6854 173.991 36.6342C174.65 36.6151 175.103 36.4872 175.353 36.4041L174.963 34.5952C174.835 34.6271 174.573 34.6847 174.285 34.6847C173.703 34.6847 173.237 34.4801 173.237 33.5469V28.4716H175.174V26.6818ZM179.634 30.7472C179.634 29.3281 180.516 28.5099 181.756 28.5099C182.97 28.5099 183.686 29.2834 183.686 30.6065V36.5H186V30.2486C186 27.8771 184.658 26.554 182.619 26.554C181.11 26.554 180.151 27.2379 179.698 28.3501H179.583V23.4091H177.32V36.5H179.634V30.7472ZM201.696 27.5895H204.112C203.709 25.0199 201.485 23.2301 198.589 23.2301C195.163 23.2301 192.594 25.7486 192.594 29.9673C192.594 34.1094 195.048 36.679 198.66 36.679C201.9 36.679 204.221 34.5952 204.221 31.2202V29.6477H198.909V31.5014H201.926C201.888 33.3679 200.641 34.5504 198.672 34.5504C196.48 34.5504 194.978 32.9077 194.978 29.9418C194.978 26.995 196.506 25.3587 198.621 25.3587C200.2 25.3587 201.274 26.2024 201.696 27.5895ZM210.694 36.6918C213.571 36.6918 215.399 34.6655 215.399 31.6293C215.399 28.5866 213.571 26.554 210.694 26.554C207.818 26.554 205.99 28.5866 205.99 31.6293C205.99 34.6655 207.818 36.6918 210.694 36.6918ZM210.707 34.8381C209.115 34.8381 208.336 33.419 208.336 31.6229C208.336 29.8267 209.115 28.3885 210.707 28.3885C212.273 28.3885 213.053 29.8267 213.053 31.6229C213.053 33.419 212.273 34.8381 210.707 34.8381ZM221.645 36.6918C224.522 36.6918 226.35 34.6655 226.35 31.6293C226.35 28.5866 224.522 26.554 221.645 26.554C218.769 26.554 216.941 28.5866 216.941 31.6293C216.941 34.6655 218.769 36.6918 221.645 36.6918ZM221.658 34.8381C220.067 34.8381 219.287 33.419 219.287 31.6229C219.287 29.8267 220.067 28.3885 221.658 28.3885C223.224 28.3885 224.004 29.8267 224.004 31.6229C224.004 33.419 223.224 34.8381 221.658 34.8381ZM232.584 40.348C235.237 40.348 237.192 39.1335 237.192 36.6598V26.6818H234.911V28.3054H234.783C234.431 27.5959 233.696 26.554 231.964 26.554C229.695 26.554 227.911 28.331 227.911 31.5589C227.911 34.7614 229.695 36.3594 231.957 36.3594C233.638 36.3594 234.425 35.4581 234.783 34.7358H234.898V36.5959C234.898 38.0021 233.939 38.5966 232.622 38.5966C231.229 38.5966 230.615 37.9382 230.334 37.4013L228.25 37.9062C228.672 39.2422 230.085 40.348 232.584 40.348ZM232.603 34.544C231.075 34.544 230.27 33.3551 230.27 31.5462C230.27 29.7628 231.062 28.4524 232.603 28.4524C234.092 28.4524 234.911 29.6861 234.911 31.5462C234.911 33.419 234.08 34.544 232.603 34.544ZM241.878 23.4091H239.564V36.5H241.878V23.4091ZM248.604 36.6918C250.892 36.6918 252.465 35.5732 252.874 33.8665L250.713 33.6236C250.4 34.4545 249.633 34.8892 248.636 34.8892C247.14 34.8892 246.149 33.9048 246.13 32.2237H252.97V31.5142C252.97 28.0689 250.899 26.554 248.482 26.554C245.67 26.554 243.835 28.6186 243.835 31.6484C243.835 34.7294 245.644 36.6918 248.604 36.6918ZM246.137 30.6641C246.207 29.4112 247.134 28.3565 248.514 28.3565C249.844 28.3565 250.739 29.3281 250.752 30.6641H246.137Z" fill="#798895"/>
</svg>
