<svg width="126" height="60" viewBox="0 0 126 60" fill="none" xmlns="http://www.w3.org/2000/svg">
<path d="M60.1761 21.5455H55.9659V31.6023H55.821L48.9517 21.5455H45.321V39H49.5398V28.9261H49.6506L56.5966 39H60.1761V21.5455ZM66.5192 39.2216C68.343 39.2216 69.6044 38.5142 70.3203 37.1761H70.4226V39H74.343V30.1023C74.343 27.3324 71.88 25.7386 68.5476 25.7386C65.0277 25.7386 63.0334 27.5114 62.701 29.8977L66.5447 30.0341C66.7237 29.1989 67.4141 28.6875 68.5135 28.6875C69.5362 28.6875 70.1839 29.1818 70.1839 30.0597V30.1023C70.1839 30.9034 69.3146 31.0739 67.0817 31.2699C64.4311 31.4915 62.2152 32.4716 62.2152 35.3693C62.2152 37.9602 64.0135 39.2216 66.5192 39.2216ZM67.8061 36.4943C66.843 36.4943 66.1612 36.0341 66.1612 35.1648C66.1612 34.321 66.826 33.8097 68.0107 33.6307C68.7862 33.5199 69.7408 33.3494 70.2095 33.1023V34.3466C70.2095 35.625 69.1357 36.4943 67.8061 36.4943ZM76.8913 39H81.0589V31.2528C81.0589 29.9574 81.8175 29.1307 82.9084 29.1307C83.9908 29.1307 84.7067 29.8892 84.7067 31.0994V39H88.7124V31.1847C88.7124 29.9318 89.4027 29.1307 90.5533 29.1307C91.6101 29.1307 92.3601 29.8381 92.3601 31.142V39H96.5277V30.1875C96.5277 27.4176 94.8232 25.7386 92.3516 25.7386C90.4169 25.7386 88.8913 26.7528 88.4055 28.3125H88.2692C87.9197 26.7443 86.5135 25.7386 84.6982 25.7386C82.9084 25.7386 81.5447 26.7188 80.9993 28.3125H80.8544V25.9091H76.8913V39ZM99.1101 25.9091V39.4091C99.1101 40.2784 98.7266 40.696 97.5845 40.696C97.4226 40.696 97.2777 40.6875 97.0732 40.6705V43.8239C97.397 43.858 97.6186 43.8494 97.8402 43.858C101.181 43.9602 103.278 42.733 103.278 39.4943V25.9091H99.1101ZM101.19 24.3835C102.374 24.3835 103.329 23.4886 103.329 22.3892C103.329 21.2898 102.374 20.4034 101.19 20.4034C100.013 20.4034 99.0504 21.2898 99.0504 22.3892C99.0504 23.4886 100.013 24.3835 101.19 24.3835ZM109.621 39.2216C111.445 39.2216 112.706 38.5142 113.422 37.1761H113.524V39H117.445V30.1023C117.445 27.3324 114.982 25.7386 111.649 25.7386C108.129 25.7386 106.135 27.5114 105.803 29.8977L109.646 30.0341C109.825 29.1989 110.516 28.6875 111.615 28.6875C112.638 28.6875 113.286 29.1818 113.286 30.0597V30.1023C113.286 30.9034 112.416 31.0739 110.183 31.2699C107.533 31.4915 105.317 32.4716 105.317 35.3693C105.317 37.9602 107.115 39.2216 109.621 39.2216ZM110.908 36.4943C109.945 36.4943 109.263 36.0341 109.263 35.1648C109.263 34.321 109.928 33.8097 111.112 33.6307C111.888 33.5199 112.842 33.3494 113.311 33.1023V34.3466C113.311 35.625 112.237 36.4943 110.908 36.4943ZM119.993 39H124.161V25.9091H119.993V39ZM122.081 24.3835C123.266 24.3835 124.22 23.4886 124.22 22.3892C124.22 21.2898 123.266 20.4034 122.081 20.4034C120.905 20.4034 119.942 21.2898 119.942 22.3892C119.942 23.4886 120.905 24.3835 122.081 24.3835Z" fill="#F5C341"/>
<path d="M18 58.9565C18 59.6522 18.3289 60 18.9868 60H21.3553C25.8728 60 29.2939 59.5131 31.6184 58.5391C33.9868 57.6116 35.6316 56.0116 36.5526 53.7391C37.563 51.4083 38 48.5413 38 46.0143V1.98571C38 1.67905 37.9126 1.4381 37.7379 1.26286C37.5632 1.08762 37.323 1 37.0172 1H26.6655C26.3598 1 26.1195 1.08762 25.9448 1.26286C25.7701 1.4381 25.6828 1.67905 25.6828 1.98571L25.7483 23.8686C25.7483 24.0438 25.7046 24.1533 25.6172 24.1971C25.5299 24.1971 25.4425 24.1314 25.3552 24L12.0552 1.65714C11.7931 1.21905 11.4 1 10.8759 1H0.982759C0.677011 1 0.436782 1.08762 0.262069 1.26286C0.0873563 1.4381 0 1.67905 0 1.98571V46.0143C0 46.321 0.0873563 46.5619 0.262069 46.7371C0.436782 46.9124 0.677011 47 0.982759 47H11.3345C11.6402 47 11.8805 46.9124 12.0552 46.7371C12.2299 46.5619 12.3172 46.321 12.3172 46.0143L12.1862 24.1314C12.1862 23.9562 12.2299 23.8686 12.3172 23.8686C12.4046 23.8248 12.492 23.8686 12.5793 24L25.6963 45.9274C25.5279 46.8922 25.1993 47.6179 24.7105 48.1043C24.0088 48.8464 22.671 49.2174 20.6974 49.2174C19.9956 49.2174 19.4474 49.1942 19.0526 49.1478C18.3509 49.1478 18 49.4957 18 50.1913V58.9565Z" fill="#F5C341"/>
<path d="M43.664 10.368C44.816 11.4773 46.2667 12.032 48.016 12.032C49.7653 12.032 51.1947 11.456 52.304 10.304C53.456 9.152 54.032 7.72267 54.032 6.016C54.032 4.224 53.456 2.77333 52.304 1.664C51.1947 0.554667 49.7653 0 48.016 0C46.2667 0 44.816 0.554667 43.664 1.664C42.5547 2.77333 42 4.224 42 6.016C42 7.76533 42.5547 9.216 43.664 10.368Z" fill="#F5C341"/>
</svg>
