<svg width="76" height="37" viewBox="0 0 76 37" fill="none" xmlns="http://www.w3.org/2000/svg">
<path d="M36.2967 12.3131H33.7572V18.3791H33.6698L29.5264 12.3131H27.3365V22.8412H29.8811V16.7649H29.948L34.1376 22.8412H36.2967V12.3131ZM40.1227 22.9749C41.2228 22.9749 41.9836 22.5482 42.4154 21.7411H42.4771V22.8412H44.8418V17.4744C44.8418 15.8036 43.3562 14.8423 41.3462 14.8423C39.223 14.8423 38.0201 15.9116 37.8196 17.351L40.1381 17.4332C40.246 16.9295 40.6624 16.621 41.3256 16.621C41.9425 16.621 42.3332 16.9192 42.3332 17.4487V17.4744C42.3332 17.9576 41.8088 18.0604 40.462 18.1786C38.8632 18.3123 37.5266 18.9035 37.5266 20.6513C37.5266 22.2141 38.6113 22.9749 40.1227 22.9749ZM40.8989 21.3299C40.318 21.3299 39.9068 21.0523 39.9068 20.5279C39.9068 20.019 40.3077 19.7106 41.0223 19.6026C41.4901 19.5358 42.0658 19.433 42.3486 19.2839V20.0344C42.3486 20.8055 41.7009 21.3299 40.8989 21.3299ZM46.3789 22.8412H48.8927V18.1684C48.8927 17.387 49.3502 16.8883 50.0082 16.8883C50.6611 16.8883 51.0929 17.3458 51.0929 18.0758V22.8412H53.509V18.1272C53.509 17.3716 53.9254 16.8883 54.6194 16.8883C55.2569 16.8883 55.7092 17.315 55.7092 18.1015V22.8412H58.223V17.5258C58.223 15.855 57.1949 14.8423 55.7041 14.8423C54.5372 14.8423 53.617 15.4541 53.324 16.3948H53.2417C53.0309 15.4489 52.1827 14.8423 51.0878 14.8423C50.0082 14.8423 49.1857 15.4335 48.8567 16.3948H48.7693V14.9451H46.3789V22.8412ZM59.7807 14.9451V23.088C59.7807 23.6124 59.5493 23.8642 58.8605 23.8642C58.7628 23.8642 58.6754 23.8591 58.552 23.8488V25.7509C58.7474 25.7714 58.8811 25.7663 59.0147 25.7714C61.0299 25.8331 62.2945 25.0929 62.2945 23.1394V14.9451H59.7807ZM61.035 14.025C61.7496 14.025 62.3253 13.4852 62.3253 12.822C62.3253 12.1589 61.7496 11.6243 61.035 11.6243C60.3256 11.6243 59.7447 12.1589 59.7447 12.822C59.7447 13.4852 60.3256 14.025 61.035 14.025ZM66.1204 22.9749C67.2205 22.9749 67.9814 22.5482 68.4132 21.7411H68.4749V22.8412H70.8396V17.4744C70.8396 15.8036 69.3539 14.8423 67.3439 14.8423C65.2208 14.8423 64.0179 15.9116 63.8174 17.351L66.1359 17.4332C66.2438 16.9295 66.6602 16.621 67.3234 16.621C67.9402 16.621 68.3309 16.9192 68.3309 17.4487V17.4744C68.3309 17.9576 67.8066 18.0604 66.4597 18.1786C64.861 18.3123 63.5244 18.9035 63.5244 20.6513C63.5244 22.2141 64.6091 22.9749 66.1204 22.9749ZM66.8967 21.3299C66.3158 21.3299 65.9045 21.0523 65.9045 20.5279C65.9045 20.019 66.3055 19.7106 67.0201 19.6026C67.4879 19.5358 68.0636 19.433 68.3464 19.2839V20.0344C68.3464 20.8055 67.6986 21.3299 66.8967 21.3299ZM72.3767 22.8412H74.8905V14.9451H72.3767V22.8412ZM73.6361 14.025C74.3507 14.025 74.9264 13.4852 74.9264 12.822C74.9264 12.1589 74.3507 11.6243 73.6361 11.6243C72.9267 11.6243 72.3458 12.1589 72.3458 12.822C72.3458 13.4852 72.9267 14.025 73.6361 14.025Z" fill="#2A3844"/>
<path d="M10.8571 35.5611C10.8571 35.9807 11.0556 36.1905 11.4524 36.1905H12.881C15.6058 36.1905 17.6693 35.8967 19.0714 35.3093C20.5 34.7498 21.4921 33.7848 22.0476 32.4141C22.657 31.0082 22.9206 29.2788 22.9206 27.7546V1.19771C22.9206 1.01273 22.8679 0.867398 22.7626 0.761698C22.6572 0.655999 22.5123 0.603149 22.3279 0.603149H16.084C15.8995 0.603149 15.7546 0.655999 15.6493 0.761698C15.5439 0.867398 15.4912 1.01273 15.4912 1.19771L15.5307 14.3969C15.5307 14.5026 15.5044 14.5687 15.4517 14.5951C15.399 14.5951 15.3463 14.5554 15.2936 14.4762L7.27137 0.999521C7.1133 0.735273 6.87619 0.603149 6.56004 0.603149H0.592775C0.408356 0.603149 0.263456 0.655999 0.158073 0.761698C0.0526911 0.867398 0 1.01273 0 1.19771V27.7546C0 27.9396 0.0526911 28.0849 0.158073 28.1906C0.263456 28.2963 0.408356 28.3492 0.592775 28.3492H6.83667C7.02109 28.3492 7.16599 28.2963 7.27137 28.1906C7.37676 28.0849 7.42945 27.9396 7.42945 27.7546L7.35041 14.5554C7.35041 14.4497 7.37676 14.3969 7.42945 14.3969C7.48214 14.3705 7.53483 14.3969 7.58752 14.4762L15.4993 27.7022C15.3978 28.2842 15.1996 28.7219 14.9048 29.0153C14.4815 29.4629 13.6746 29.6867 12.4841 29.6867C12.0608 29.6867 11.7302 29.6727 11.4921 29.6447C11.0688 29.6447 10.8571 29.8545 10.8571 30.2741V35.5611Z" fill="#2A3844"/>
<path d="M26.337 6.25371C27.0319 6.92284 27.9069 7.2574 28.962 7.2574C30.0172 7.2574 30.8793 6.90997 31.5484 6.21511C32.2433 5.52025 32.5907 4.65812 32.5907 3.6287C32.5907 2.54781 32.2433 1.6728 31.5484 1.00368C30.8793 0.334561 30.0172 0 28.962 0C27.9069 0 27.0319 0.334561 26.337 1.00368C25.6679 1.6728 25.3333 2.54781 25.3333 3.6287C25.3333 4.68385 25.6679 5.55886 26.337 6.25371Z" fill="#2A3844"/>
</svg>
