<svg width="595" height="425" viewBox="0 0 595 425" fill="none" xmlns="http://www.w3.org/2000/svg">
<path fill-rule="evenodd" clip-rule="evenodd" d="M252.957 178.689C246.543 183.341 247.53 192.504 249.504 199.13C252.323 208.928 258.032 217.95 264.445 225.774C275.933 239.66 295.386 255.167 313.288 243.043C329.286 232.188 339.365 210.337 342.818 191.94C343.876 186.231 345.356 177.772 340.281 173.473C332.81 167.129 319.631 168.327 310.609 169.103C304.689 169.666 298.98 171.429 293.06 170.583C279.528 168.68 264.304 170.442 252.957 178.689Z" fill="#CF495D"/>
<path fill-rule="evenodd" clip-rule="evenodd" d="M529.236 251.22C516.268 267.714 494.138 270.322 474.544 270.181C462.738 270.218 450.958 269.085 439.375 266.798C433.143 265.495 426.999 263.8 420.98 261.723C417.033 260.383 411.113 259.678 409.421 255.449C404.981 244.242 408.223 230.144 410.056 218.725C410.972 212.946 411.677 207.095 412.593 201.315C413.157 197.579 413.439 193.491 414.989 190.037C416.822 185.949 419.148 186.795 422.953 187.923C428.239 189.473 433.737 190.108 439.164 190.954C452.484 192.998 464.113 197.086 476.236 202.936C488.217 208.716 499.846 214.355 510.489 222.391C515.818 226.347 520.667 230.913 524.937 235.995C528.32 239.801 533.324 246.004 529.236 251.22ZM472.5 324.385C472.43 326.148 452.061 320.791 449.383 320.227C431.834 316.279 413.862 311.768 397.299 304.649C381.793 298.023 368.12 290.411 355.927 278.569C350.305 273.099 345.054 267.259 340.211 261.088C337.744 257.987 334.431 258.339 331.683 255.731C329.216 253.405 327.313 251.502 328.088 247.978C334.22 249.599 345.567 259.749 351.981 254.603C355.646 251.643 350.571 248.612 348.245 246.92C343.937 243.657 340.054 239.869 336.687 235.642C342.594 236.799 348.25 238.994 353.39 242.127C355.716 243.537 363.61 248.541 365.442 243.748C366.57 240.788 361.213 237.123 359.522 235.501C355.434 231.484 350.994 226.831 348.809 221.474C354.165 220.206 359.24 224.364 362.975 227.748C367.063 231.484 372.067 235.431 375.45 239.801C377.212 242.057 377.565 244.665 378.974 247.061C380.525 249.81 382.992 252.136 385.388 254.11C389.969 257.987 395.255 260.806 400.752 263.203C413.39 268.506 426.547 272.475 440.009 275.045C446.467 276.313 453.023 277.021 459.603 277.159C464.748 277.3 467.074 278.851 469.047 283.644C474.262 296.684 473.276 310.852 472.5 324.385ZM319.349 226.338C316.389 229.158 312.512 230.849 309.341 233.598C306.531 236.075 303.539 238.337 300.39 240.365C297.148 242.409 294.681 240.999 291.721 239.096C288.267 236.911 284.32 236.065 280.726 234.092C268.392 227.395 253.38 210.972 255.635 195.888C256.622 189.473 259.935 183.2 265.925 180.31C271.352 177.702 279.316 176.222 285.096 178.407C288.408 179.676 290.734 182.354 292.848 185.103C295.315 188.275 296.231 187.782 298.769 184.751C303.209 179.323 310.609 174.601 317.939 174.671C321.561 174.729 325.133 175.521 328.441 176.997C328.863 177.209 329.145 177.843 329.568 178.054C330.132 178.336 330.978 177.772 331.401 177.984C332.387 178.618 333.304 180.451 333.867 181.438C336.052 185.315 340.07 192.857 336.052 196.099C336.052 196.099 336.264 200.469 336.193 200.963C335.838 203.475 335.051 205.908 333.867 208.152C330.273 215.413 325.128 220.981 319.349 226.338ZM325.269 287.168C322.45 288.014 319.419 279.203 322.097 277.794C324.705 276.454 327.806 286.393 325.269 287.168ZM280.867 276.595C279.88 279.908 279.457 283.714 277.061 286.463C274.876 283.855 274.665 279.062 276.779 276.384C278.048 274.833 281.924 272.93 280.867 276.595ZM371.362 217.95C371.362 218.021 374.745 219.642 373.124 221.474C370.799 223.941 371.081 219.148 371.362 217.95ZM385.458 190.672C385.388 194.055 378.269 193.209 378.34 189.826C378.34 185.667 385.529 187.077 385.458 190.672ZM376.93 162.406C377.635 159.305 390.11 155.005 389.758 160.433C389.546 163.111 375.38 168.962 376.93 162.406ZM249.222 267.432C247.812 269.124 245.839 269.758 244.147 271.027C242.385 272.366 241.117 274.128 239.636 275.749C235.408 280.12 230.333 283.714 225.822 287.662C217.506 294.992 209.471 302.887 200.238 309.16C183.676 320.297 164.505 326.359 145.476 331.716C143.925 332.139 139.344 333.972 137.794 332.632C136.102 331.223 136.948 326.148 137.018 324.244C137.3 316.42 138.217 308.526 138.146 300.702C138.076 297.53 137.159 292.948 138.851 289.988C140.683 286.745 145.899 285.759 149.141 284.49C158.938 280.754 168.382 274.41 177.051 268.56C187.693 261.37 198.476 254.039 209.401 247.343C220.114 240.788 231.954 236.347 243.936 232.611C244.5 233.81 238.791 237.545 238.156 238.039C235.055 240.576 231.602 243.184 229.276 246.497C227.655 248.823 225.963 254.18 230.474 254.321C232.659 254.392 235.901 252.277 237.945 251.572C241.253 250.469 244.648 249.644 248.094 249.105C245.134 252.348 235.055 258.269 236.888 263.696C238.65 268.983 248.94 262.85 252.464 262.85C251.829 264.753 250.42 266.022 249.222 267.432ZM127.856 282.164C121.301 284.49 114.535 285.759 107.769 287.309C101.285 288.719 95.2946 289.776 88.6695 289.001C79.5072 287.873 69.3582 284.067 68.2305 273.635C66.8209 261.3 75.5603 250.022 83.0312 241.14C92.1479 230.436 102.325 220.682 113.408 212.029C124.496 203.34 136.363 195.695 148.859 189.191C158.374 184.257 169.087 181.297 179.165 177.561C181.068 176.856 186.354 174.389 188.186 176.433C189.667 178.054 187.693 180.874 186.988 182.354C185.72 185.385 185.508 188.346 185.226 191.588C183.746 205.967 181.984 220.347 181.139 234.726C180.927 238.744 180.504 242.973 180.716 246.991C180.857 249.246 181.984 252.066 181.209 254.251C179.729 258.41 172.892 261.229 169.298 263.062C162.814 266.375 156.048 268.912 149.493 272.084C142.375 275.749 135.397 279.556 127.856 282.164ZM219.056 188.839C220.889 188.557 223.567 188.134 225.188 189.262C227.303 190.813 226.739 192.927 224.765 193.984C223.215 194.83 219.62 195.112 218.14 194.337C215.603 192.927 216.026 189.191 219.056 188.839ZM229.065 222.109C227.584 224.505 222.299 226.127 222.721 221.615C223.144 217.668 231.743 217.598 229.065 222.109ZM227.091 153.595C229.417 154.512 233.716 155.287 234.421 158.318C235.055 161.138 232.377 160.926 230.474 160.151C228.853 159.516 221.876 153.595 227.091 153.595ZM594.571 260.736C593.232 255.379 594.218 249.528 593.514 244.03C592.798 238.841 591.473 233.754 589.567 228.876C585.408 217.809 580.545 207.87 573.779 198.214C560.952 179.958 546.151 163.887 528.179 150.564C510.453 137.334 490.888 126.766 470.104 119.198C448.115 111.233 425.914 108.484 402.726 106.933C395.819 106.51 388.841 105.946 381.934 105.03C376.86 104.396 370.587 103.62 365.583 105.171C362.482 106.158 360.72 108.907 364.103 110.669C366.499 111.938 369.671 112.079 372.349 112.431C369.107 122.652 363.892 132.943 355.575 139.991C347.47 146.899 336.616 149.225 326.326 150.987C320.758 151.904 314.556 152.679 308.918 152.256C305.323 151.974 302.575 150.353 301.095 154.018C300.108 156.556 299.614 159.375 298.275 155.499C296.725 150.917 295.949 150.987 291.086 149.648C281.149 146.97 269.802 144.573 261.203 138.864C252.252 132.943 249.081 123.286 244.077 114.334C242.808 112.149 239.073 107.638 241.046 105.1C242.808 102.774 248.446 102.986 251.054 102.774C253.803 102.492 256.552 102.492 259.3 102.422C260.921 102.351 264.093 102.986 263.458 100.66C262.472 97.0649 252.111 97.5583 249.574 97.4878C244.774 97.3222 239.968 97.5107 235.196 98.0517C211.414 100.774 187.891 105.418 164.858 111.938C120.526 124.414 77.5338 147.463 45.1837 180.662C14.1023 212.523 4.30565 265.529 23.4056 306.2C33.3432 327.346 54.8394 336.016 75.7718 342.994C86.7666 346.659 98.4662 349.62 110.166 348.915C115.804 348.562 121.09 347.082 126.587 345.954C128.984 345.461 131.662 344.686 134.129 344.897C135.961 345.038 137.794 346.73 139.485 345.813C140.754 345.179 141.247 343.346 142.798 342.571C144.63 341.655 146.815 341.302 148.788 340.809C154.215 339.47 159.501 337.355 164.858 335.593C170.301 333.688 175.641 331.5 180.857 329.038C183.535 327.839 189.667 322.976 191.429 326.5C192.204 328.121 191.851 331.223 192.063 332.985C192.415 335.945 192.768 338.906 193.261 341.937C194.248 348.492 195.375 354.977 196.574 361.462C198.688 373.162 201.437 384.37 206.018 395.436C209.683 404.247 212.854 414.186 219.62 421.235C221.017 422.748 222.79 423.865 224.758 424.471C226.726 425.078 228.82 425.153 230.827 424.688C235.619 423.561 238.015 419.19 240.976 415.666C247.389 407.842 258.032 401.921 267.899 399.736C279.951 397.128 291.65 400.934 303.138 404.247C315.261 407.701 327.665 411.014 339.576 415.173C350.712 419.049 362.693 424.759 374.745 424.266C385.247 423.843 395.044 415.314 402.655 408.758C410.267 402.203 419.782 392.617 430.706 393.392C436.133 393.745 441.067 396.423 446.353 397.48C452.132 398.679 458.334 398.82 464.254 399.243C471.584 399.807 488.006 397.903 490.684 389.022C491.107 387.683 491.107 385.004 489.345 384.511C487.724 384.017 486.949 385.921 485.469 385.78C482.438 385.639 480.042 380.282 478.35 378.167C471.584 369.85 462.21 363.576 454.599 356.034C446 347.505 438.67 337.214 432.186 326.993C435.146 326.218 438.247 327.487 441.137 328.121C444.591 328.826 447.974 329.742 451.357 330.659C455.092 331.716 458.898 332.421 462.704 333.196C465.523 333.76 469.329 333.972 471.866 335.381C474.121 336.65 475.32 337.989 478.139 338.342C480.958 338.694 483.848 338.412 486.667 338.412C494.349 338.342 501.961 338.201 509.573 337.426C536.496 334.536 565.11 323.187 581.321 300.561C585.802 294.417 589.253 287.584 591.54 280.331C593.091 274.622 596.121 266.657 594.571 260.736Z" fill="#2A3844"/>
<path fill-rule="evenodd" clip-rule="evenodd" d="M341.761 0.00422039C348.88 0.0747074 355.505 2.18932 362.059 4.58588C367.838 6.70049 374.041 8.60364 378.763 12.8329C387.22 20.375 389.405 32.8512 390.815 43.5652C392.506 56.8872 386.797 68.0947 382.005 80.1479C377.494 91.4259 369.178 100.589 359.381 107.497C354.236 111.162 348.527 113.347 342.536 115.25C336.475 117.224 330.625 119.832 324.141 119.832C314.274 119.832 301.658 115.11 297.5 105.453C295.597 101.012 297.43 100.237 301.306 102.633C306.874 106.087 312.16 109.893 318.644 111.444C331.189 114.475 346.272 109.823 357.267 103.691C368.261 97.5583 375.662 88.3949 380.595 76.9055C385.599 65.3457 387.502 53.9268 385.599 41.5211C383.978 30.948 380.736 21.2913 371.221 15.5819C350.712 3.17614 323.014 4.23344 304.759 20.3045C302.222 22.4896 299.755 24.6747 297.218 26.7893C295.597 28.1285 293.624 29.7497 293.906 32.0758C294.117 34.0494 298.346 41.662 293.271 39.336C289.113 37.4328 286.928 33.697 281.924 33.2741C276.638 32.7807 270.295 36.8689 268.674 42.0145C267.123 46.9486 269.872 53.6448 274.101 56.4643C276.709 58.2265 279.598 57.9445 282.558 57.8741C284.038 57.8741 288.126 57.3806 289.113 58.9314C290.875 61.6804 284.743 64.5703 282.77 65.2047C277.977 66.6849 272.339 64.9228 269.52 60.6935C266.624 56.3363 264.878 51.3167 264.445 46.1027C264.009 41.1219 265.303 36.143 268.11 32.0053C271.211 27.6351 277.554 22.7715 283.263 24.3222C285.73 24.9566 287.703 27.5646 290.17 27.9876C291.721 28.2695 291.086 28.481 292.355 27.3532C293.13 26.6483 293.906 25.3091 294.681 24.4632C298.98 19.5291 303.209 14.3131 308.424 10.3658C317.657 3.17614 330.132 -0.136754 341.761 0.00422039ZM315.825 97.3468C316.952 94.7388 318.996 99.3909 319.56 100.166C320.758 101.717 323.577 102.915 323.436 105.171C323.225 108.907 318.15 108.202 316.459 106.299C314.486 104.043 314.697 99.9548 315.825 97.3468ZM351.981 79.6545C354.729 83.9542 351.346 88.5359 349.232 92.3422C347.188 95.937 345.215 100.096 342.818 103.479C338.801 109.118 330.062 102.986 329.78 97.2058C329.568 92.7651 332.74 94.6683 334.784 96.36C336.898 98.0517 337.885 98.4746 340.07 96.6419C344.439 92.9061 346.413 86.5623 349.443 81.8396C350.007 80.8528 351.135 80.2889 351.981 79.6545ZM359.874 81.0643C360.579 83.1084 359.099 88.6064 363.257 88.0425C365.513 87.7605 366.006 84.4477 367.204 83.0379C371.221 78.2448 370.023 87.3376 368.966 89.5932C366.64 94.5978 360.156 98.0517 356.914 91.7078C355.815 89.2216 355.616 86.4304 356.35 83.8133C356.632 82.4035 358.535 77.258 359.874 81.0643ZM323.014 71.2666C322.661 73.6631 320.406 78.5267 323.155 80.2184C325.621 81.7691 329.85 78.4563 331.753 77.0465C333.726 75.6368 338.167 71.4781 338.308 76.6236C338.378 79.2316 335.77 82.333 333.938 83.8838C329.991 87.0557 321.674 89.9456 318.785 83.9542C317.164 80.6414 318.08 75.9892 319.137 72.6763C319.842 69.9273 323.859 65.4162 323.014 71.2666ZM375.168 58.015C376.789 59.9182 380.595 64.0769 378.551 66.7554C376.085 69.8568 372.138 64.1474 370.587 62.5262C369.178 61.1165 366.217 56.9577 367.486 54.8431C369.53 51.2483 373.759 56.3233 375.168 58.015ZM349.725 49.909C355.011 53.3629 348.034 55.8299 345.074 56.1119C341.409 56.4643 336.757 56.7463 333.445 54.9136C328.722 52.3761 330.273 48.5698 334.854 47.6534C339.506 46.7371 345.637 47.2305 349.725 49.909ZM280.937 38.9131C284.814 39.6884 289.254 40.6752 290.593 44.9044C291.932 49.2746 290.029 50.7549 286.012 49.7681C282.347 48.8517 276.85 47.9354 274.735 44.3405C272.268 40.0408 277.343 38.2082 280.937 38.9131Z" fill="#2A3844"/>
<path fill-rule="evenodd" clip-rule="evenodd" d="M66.8914 133.154C65.5523 137.383 58.9977 140.203 55.6852 142.74C44.076 151.605 32.992 161.136 22.4894 171.288C17.0624 176.574 12.9746 183.059 8.32299 188.909C7.19532 190.319 5.15142 193.562 2.89608 193.28C0.429297 192.927 -0.0640591 188.698 0.00642036 186.865C0.288338 180.521 6.06765 174.46 10.1555 170.089C14.8071 165.226 19.7407 160.433 24.8152 155.992C30.3831 151.058 36.4443 146.899 42.576 142.74C48.6372 138.723 54.4165 134 60.6892 130.335C63.5789 128.573 68.4419 127.938 66.8914 133.154ZM469.752 93.1176C474.544 93.2585 479.267 94.8797 483.777 96.2895C493.785 99.5319 503.23 103.973 512.603 108.625C529.119 116.842 544.773 126.689 559.331 138.018C562.353 140.271 565.507 142.343 568.775 144.221C570.89 145.489 573.92 146.97 574.696 149.507C576.74 155.921 566.309 149.507 564.828 148.591L562.714 147.322C531.844 128.22 501.045 109.612 466.157 98.686C465.754 98.6004 465.378 98.415 465.064 98.1468C464.751 97.8785 464.509 97.536 464.362 97.1505C464.215 96.765 464.167 96.3488 464.222 95.9398C464.277 95.5308 464.433 95.1421 464.677 94.8092C465.946 92.9061 467.99 93.0471 469.752 93.1176ZM65.4818 106.44C65.2704 108.413 63.0855 108.836 61.535 109.471C55.9671 111.797 50.3287 113.77 44.7609 116.167C34.4709 120.537 25.0971 126.951 14.3137 130.264C11.847 131.04 11.4946 128.573 12.1289 126.881C12.8337 124.978 15.0185 123.709 16.6396 122.581C21.2207 119.48 26.4362 117.224 31.5107 115.039C36.5148 112.854 41.7302 111.233 46.8752 109.4C51.6678 107.708 57.2357 104.607 62.3807 104.325H62.5921C64.3541 104.325 65.6932 104.184 65.4818 106.44ZM478.562 76.9056C473.628 75.4958 478.28 72.3944 481.24 72.6058C484.482 72.8173 487.654 74.368 490.684 75.2844C499.963 77.9257 508.995 81.369 517.678 85.5755C519.017 86.2098 524.796 89.3113 520.92 90.721C518.242 91.7078 512.039 87.5491 509.784 86.6328C499.776 82.4035 488.993 79.866 478.562 76.9056Z" fill="#2A3844"/>
<path fill-rule="evenodd" clip-rule="evenodd" d="M282.981 86.9852C283.616 85.1525 291.157 65.4867 288.197 64.9228C285.025 64.2884 280.867 75.7073 279.951 77.7514C276.568 85.364 274.594 93.5405 273.044 101.717C271.986 107.426 271 113.206 271.352 119.057C271.634 123.497 273.467 124.202 276.497 126.951C276.489 113.367 278.678 99.8702 282.981 86.9852Z" fill="#2A3844"/>
</svg>
