<svg width="510" height="727" viewBox="0 0 510 727" fill="none" xmlns="http://www.w3.org/2000/svg">
<path fill-rule="evenodd" clip-rule="evenodd" d="M272.89 361.905H273.09C275.29 362.305 278.99 368.705 280.59 370.505C285.49 376.405 290.39 382.205 295.29 388.105C297.29 390.405 300.09 392.905 301.49 395.605C302.59 397.705 302.89 400.605 303.59 402.805C311.59 430.605 319.29 458.605 325.09 486.905C326.29 493.005 327.49 499.105 328.19 505.305C328.49 508.405 329.39 512.905 328.09 515.805C326.59 519.105 321.79 520.505 318.59 521.605C312.434 523.486 306.151 524.923 299.79 525.905C284.49 528.505 269.09 530.005 253.69 531.205C248.99 531.605 244.09 531.605 239.49 532.205C237.29 532.505 237.89 531.905 237.19 533.405C236.19 535.505 236.89 539.805 236.79 542.105C236.49 547.505 236.29 552.805 235.99 558.205L233.79 602.005C232.99 616.805 232.29 631.605 231.49 646.405L230.59 663.205C230.39 666.205 230.89 670.105 230.09 673.005C229.49 675.205 230.49 674.505 227.79 674.705C221.59 675.005 215.09 674.205 208.89 674.005C201.79 673.705 194.69 673.505 187.69 673.205C185.69 673.105 183.39 673.705 182.59 672.305C181.59 670.505 182.39 665.705 182.29 663.705C182.09 658.205 181.89 652.705 181.69 647.205C181.19 632.105 180.59 617.105 180.09 602.005C179.39 581.405 178.59 560.905 177.89 540.305C169.99 541.905 162.19 543.505 154.29 545.105C142.69 547.405 130.99 549.805 119.39 552.105C114.09 553.205 107.69 555.605 102.19 554.805C96.69 554.005 94.49 551.705 94.19 546.505C93.89 540.905 93.99 535.305 94.09 529.805C94.19 520.705 94.49 511.605 94.79 502.505C110.29 501.105 125.89 499.705 141.39 498.305C149.69 497.605 157.89 496.805 166.19 496.105C168.09 495.905 172.69 496.305 173.49 494.905C174.79 492.705 173.39 485.505 173.29 483.005L172.89 459.505L171.49 373.005C175.19 373.105 178.89 373.205 182.69 373.305C198.89 373.805 215.09 374.405 231.29 373.905C239.39 373.705 247.09 371.505 254.79 368.905C258.89 367.505 262.89 366.005 266.89 364.505C268.19 364.005 271.89 361.705 273.19 361.905H272.89ZM251.19 442.405L242.89 482.805L271.19 480.905L251.19 442.405Z" fill="#CF495D"/>
<path fill-rule="evenodd" clip-rule="evenodd" d="M487.39 114.505C486.79 119.005 487.19 123.905 482.19 125.105C477.49 126.205 472.29 125.905 467.59 126.305C462.19 126.705 456.79 127.305 451.49 127.905C444.69 128.605 445.69 126.005 444.19 120.205C442.79 114.905 440.69 109.605 438.89 104.505C438.078 102.128 437.075 99.8201 435.89 97.605C434.89 95.605 435.39 92.805 434.19 91.105C430.39 85.205 411.89 101.305 410.19 98.105C413.29 95.705 418.69 92.905 419.69 88.805C420.79 83.905 417.69 82.405 413.79 84.205C403.866 88.7638 393.371 91.9594 382.59 93.705C385.99 91.405 416.69 73.505 406.39 68.205C404.09 67.005 400.99 69.305 398.89 70.105C395.554 71.439 392.108 72.4763 388.59 73.205C384.89 74.105 381.29 75.005 377.59 75.905C374.99 76.505 370.39 78.605 367.89 78.105C365.29 77.605 369.89 76.005 370.59 75.605C373.79 74.005 376.99 72.205 380.19 70.505C385.825 67.5383 390.901 63.613 395.19 58.905C398.39 55.205 403.69 47.205 401.49 42.205C400.19 39.305 397.39 36.605 395.69 33.805C393.79 30.605 392.19 27.105 390.49 23.705C393.29 24.905 396.49 25.305 399.39 26.405C402.29 27.505 405.19 28.405 408.19 29.305C414.19 31.005 420.19 31.305 426.19 32.605C432.99 34.105 439.99 35.805 446.89 36.705C452.752 37.3246 458.395 39.2741 463.39 42.405C473.667 48.8523 481.267 58.7964 484.79 70.405C486.89 77.305 487.49 84.605 487.69 91.805C487.79 99.205 488.39 107.005 487.39 114.505ZM428.69 115.105C421.39 120.405 412.89 124.605 404.99 129.105C400.49 131.705 395.89 134.105 391.39 136.505C388.19 138.205 384.19 141.405 380.59 142.305C378.29 142.905 378.49 142.905 377.09 140.805C375.69 138.805 374.49 136.705 373.29 134.705C370.89 131.005 368.59 127.205 366.19 123.505C360.89 115.205 355.49 106.805 349.89 98.605C344.29 90.405 338.89 82.105 333.39 73.705C330.89 69.805 328.29 66.005 325.69 62.205C323.59 59.305 318.39 55.005 320.89 51.605C323.19 48.505 328.49 45.905 331.59 43.505C335.39 40.605 339.29 37.705 343.09 34.805C351.29 28.505 359.29 22.005 367.49 15.705C374.49 27.905 382.59 39.305 390.89 50.705C383.39 55.505 375.89 60.005 367.99 64.105C362.19 67.105 353.29 71.205 349.59 76.905C345.99 82.505 349.49 89.005 355.99 89.105C359.89 89.205 363.69 88.105 367.49 87.605C370.19 87.205 375.19 85.205 377.69 86.605C373.29 89.405 357.29 97.605 365.89 104.805C372.09 109.905 382.49 102.405 389.19 104.005C387.19 107.905 385.09 114.105 390.69 116.205C395.39 118.005 401.49 114.705 405.79 112.905C408.89 111.605 411.89 110.305 414.89 109.005C417.29 107.905 420.09 105.705 422.69 105.205C425.49 104.705 431.59 113.005 428.69 115.105ZM292.99 402.605C297.19 401.805 299.29 400.105 300.59 405.205C301.79 409.705 302.89 414.105 304.49 418.605C298.078 419.331 292.093 422.183 287.49 426.705C284.09 429.805 277.39 437.305 278.99 442.505C283.09 455.205 303.59 426.705 305.99 423.605C308.99 428.005 310.09 433.705 311.59 438.705C312.69 442.205 316.59 449.005 311.39 449.905C304.09 451.105 290.49 453.805 291.39 464.105C292.39 476.205 307.89 476.205 316.49 476.705C321.39 477.005 321.39 480.905 322.09 485.305C322.39 487.305 323.39 489.905 321.69 491.305C320.19 492.605 315.69 492.605 313.79 493.005L296.99 496.605C290.59 498.005 287.29 496.105 281.29 494.305C279.09 493.705 276.89 493.905 276.69 491.505C276.59 490.005 278.09 487.605 278.59 486.105C280.651 480.216 282.026 474.109 282.69 467.905C283.49 458.905 282.49 445.305 271.39 443.505C266.09 442.705 265.09 442.405 262.69 437.405C260.09 432.005 255.99 427.105 256.99 420.905C257.69 416.405 256.49 407.905 259.39 404.205C260.69 402.505 263.29 401.505 265.09 400.205C267.29 398.605 269.49 396.905 271.59 395.105C273.39 393.605 275.49 390.605 277.49 389.505C279.89 388.205 279.99 389.105 281.79 391.205C284.19 394.305 288.29 403.505 292.99 402.605ZM304.79 422.705C303.39 425.605 299.99 428.305 297.89 430.805C295.824 433.356 293.621 435.793 291.29 438.105C288.69 440.505 279.29 446.505 281.39 438.505C282.99 432.305 288.99 427.305 294.29 424.205C295.29 423.505 307.19 417.705 304.79 422.705ZM314.99 452.205C315.89 456.305 316.39 460.605 317.19 464.805C317.59 466.905 319.79 472.105 318.89 474.105C317.39 477.605 303.39 473.505 300.49 472.305C293.59 469.505 290.49 462.105 296.79 456.905C299.29 454.905 314.09 448.005 314.99 452.205ZM324.19 501.905C324.99 505.905 327.19 509.505 323.49 512.505C320.39 515.005 315.29 516.705 311.39 517.605C306.19 518.805 304.49 515.905 301.69 512.105C298.69 508.005 295.49 504.105 292.29 500.305C302.59 498.005 312.99 495.705 323.29 493.405C323.293 496.262 323.594 499.111 324.19 501.905ZM299.39 520.305C293.99 520.005 288.19 521.605 282.69 522.105C275.89 522.605 269.09 523.405 262.19 523.905C263.99 518.305 267.09 513.305 269.59 508.005C272.09 502.705 273.79 502.105 279.49 501.705C284.79 501.305 288.49 499.505 292.39 504.005C296.39 508.605 300.09 513.705 303.79 518.605C302.49 519.405 300.99 520.405 299.39 520.305ZM260.79 521.405C259.49 522.405 255.39 519.605 253.99 519.105C251.29 518.105 250.69 517.705 249.29 515.105C248.09 512.805 246.19 510.305 245.79 507.705C245.29 504.305 246.79 499.805 247.39 496.505C248.89 500.005 253.59 500.405 256.89 501.005C259.29 501.405 266.59 500.705 268.39 502.505C270.39 504.405 266.69 509.805 265.69 511.805C264.49 514.105 263.09 519.805 260.79 521.405ZM258.19 524.205C256.59 524.505 251.99 526.105 252.09 523.105C252.19 519.805 258.49 523.405 258.19 524.205ZM250.09 524.005C249.79 526.805 243.79 526.605 243.59 524.105C243.39 519.905 250.59 519.505 250.09 524.005ZM243.19 448.105C241.69 452.505 232.19 454.105 228.59 455.405C225.29 456.605 215.39 462.405 211.99 460.305C223.49 452.405 235.39 444.605 245.09 434.505C245.49 437.005 244.89 439.105 244.19 441.505C243.49 443.605 243.89 446.205 243.19 448.105ZM240.29 464.205C238.59 475.005 236.99 485.905 234.79 496.605C230.49 495.305 226.99 492.605 222.49 491.705C218.369 490.888 214.135 490.82 209.99 491.505C201.19 492.805 193.29 497.205 185.59 501.405C184.89 494.005 183.39 486.105 183.59 478.605C183.69 472.405 194.29 470.605 199.09 468.005C201.99 466.505 204.59 464.305 207.89 463.705C211.29 463.105 214.59 463.205 217.89 462.105C225.79 459.705 233.29 455.805 241.09 452.905C241.69 456.805 240.89 460.605 240.29 464.205ZM232.89 509.905C232.49 512.405 232.99 516.705 231.09 518.605C229.29 520.405 225.59 520.405 223.29 520.905C216.19 522.405 209.19 523.805 202.09 525.305C198.89 526.005 195.79 526.605 192.59 527.205C191.09 527.505 187.29 528.905 185.99 527.705C184.79 526.605 185.69 522.905 185.79 521.405C185.89 518.305 186.09 515.305 185.89 512.205C185.49 506.305 185.89 504.105 191.29 501.005C197.018 497.807 203.235 495.577 209.69 494.405C216.149 493.212 222.815 493.907 228.89 496.405C230.69 497.105 233.29 498.005 234.09 499.905C235.19 502.505 233.29 507.305 232.89 509.905ZM224.89 604.705C222.29 606.305 216.69 606.005 213.69 606.405C208.888 606.84 204.05 606.672 199.29 605.905C195.69 605.305 190.29 604.605 187.59 602.005C183.69 598.405 188.19 598.205 191.19 598.505C199.89 599.205 208.69 598.705 217.49 598.105C219.19 598.005 223.79 596.505 225.39 597.205C227.39 598.005 226.69 603.505 224.89 604.705ZM219.99 662.705C203.79 661.105 194.29 647.705 188.49 633.905C185.29 626.505 186.49 618.805 186.19 611.005C186.09 609.605 185.19 606.005 186.69 605.005C188.09 604.005 193.59 607.105 195.19 607.505C203.061 609.471 211.287 609.539 219.19 607.705C222.59 606.905 224.39 605.405 225.49 608.705C226.39 611.405 224.99 616.305 224.79 619.105C224.39 623.905 225.19 663.205 219.99 662.705ZM187.49 662.705C187.39 660.305 186.19 636.505 187.39 636.505C190.79 643.905 194.29 650.505 200.59 655.905C203.754 658.799 207.412 661.102 211.39 662.705C212.89 663.305 221.39 663.705 221.79 665.505C222.49 668.805 216.69 667.405 214.99 667.205C213.59 667.005 212.39 666.405 210.99 666.205C208.39 665.705 205.99 666.405 203.39 666.405C199.49 666.505 195.59 666.105 191.69 666.405C188.09 666.705 187.59 666.305 187.49 662.705ZM189.89 555.905C203.79 551.405 215.39 559.905 222.79 571.105C226.99 577.505 227.89 581.905 227.19 589.405C226.89 592.105 227.39 593.905 224.89 595.005C222.39 596.105 216.89 595.305 214.19 595.405C206.602 595.938 198.992 596.072 191.39 595.805C186.39 595.505 185.69 594.705 185.79 589.905C185.89 584.105 185.39 578.405 185.09 572.605C184.79 566.205 182.59 558.305 189.89 555.905ZM185.39 547.605C185.39 543.305 185.19 539.005 185.39 534.705C185.69 530.505 187.49 530.705 191.39 530.005C199.99 528.405 208.59 526.705 217.09 524.605C220.49 523.805 224.29 522.205 227.79 522.205C231.49 522.205 231.29 524.105 230.99 527.305C230.49 534.505 229.09 541.605 228.69 548.805C228.29 556.505 227.99 564.405 228.09 572.105C228.09 574.705 228.69 576.605 226.49 574.205C224.29 571.805 223.19 567.905 221.19 565.105C217.044 559.32 211.103 555.066 204.29 553.005C200.583 551.94 196.676 551.769 192.89 552.505C191.69 552.705 185.99 555.505 185.29 554.905C184.79 554.505 185.39 547.705 185.39 547.605ZM236.19 695.005C241.793 698.866 247.754 702.181 253.99 704.905C257.49 706.505 271.19 709.705 271.69 713.205C271.89 715.105 269.69 717.205 268.19 717.405C266.29 717.705 263.19 716.405 261.19 716.205C254.19 715.305 247.19 715.305 240.29 713.405C226.59 709.505 212.39 708.405 198.59 705.005C195.29 704.205 191.99 703.405 188.69 702.705C185.59 702.005 184.19 702.105 183.99 698.805C183.79 691.405 185.89 683.905 185.89 676.405C197.09 677.705 208.29 677.705 219.49 678.705C224.29 679.105 224.19 680.105 226.29 684.305C228.743 688.571 232.127 692.228 236.19 695.005ZM181.69 455.705C181.59 453.005 181.39 450.205 181.19 447.505C180.99 445.705 179.39 440.605 180.29 439.105C181.39 437.405 182.49 438.405 184.49 438.405C187.008 438.227 189.429 437.363 191.49 435.905C195.454 433.293 198.799 429.846 201.29 425.805C203.69 422.205 203.19 417.405 203.19 413.105C203.09 402.105 203.89 391.405 203.29 380.305C202.99 375.205 207.29 378.305 210.79 379.005C216.49 380.105 222.69 379.305 228.49 379.305C228.29 380.705 216.39 384.005 214.49 385.305C212.066 386.826 210.105 388.981 208.818 391.537C207.531 394.093 206.968 396.952 207.19 399.805C208.09 411.805 221.29 413.805 230.99 413.805C222.99 420.905 215.09 427.605 208.79 436.405C204.19 442.805 195.99 455.505 203.59 462.705C196.89 466.505 190.19 470.705 182.69 472.605C182.39 467.005 181.99 461.305 181.69 455.705ZM178.69 236.705C181.39 238.505 182.59 236.005 184.69 234.705C187.59 232.905 188.59 233.105 188.99 229.005C189.69 221.505 186.49 214.705 182.59 208.605C180.79 205.805 178.99 202.505 176.49 200.305C174.19 198.305 171.79 199.005 169.69 196.905C168.89 196.105 168.99 195.005 167.59 195.005C166.69 195.005 164.49 197.905 163.69 198.505C161.29 200.505 158.39 202.005 155.19 200.405C150.59 198.005 152.09 189.405 155.59 186.605C158.29 184.405 161.59 184.805 164.69 184.405C166.99 184.105 167.49 184.205 166.59 181.605C165.89 179.705 164.39 178.305 163.59 176.405C162.09 172.905 162.39 168.605 161.79 164.905C161.19 161.605 159.89 158.005 159.89 154.605C159.99 150.305 161.39 149.205 165.09 148.005C168.69 146.805 171.69 144.305 174.79 142.105C178.29 139.705 182.09 138.005 185.69 135.805C188.09 134.305 189.69 131.205 192.39 132.605C195.59 134.305 198.89 139.205 201.59 141.805C197.69 144.305 196.69 145.405 197.29 150.305C197.79 154.805 198.69 158.805 202.19 161.905C203.49 163.105 205.99 164.105 206.99 165.505C208.19 167.105 207.39 165.705 207.29 167.505C207.19 168.505 206.39 169.105 206.59 170.305C207.39 175.405 213.19 172.405 215.59 170.605C224.09 164.305 208.19 159.305 204.39 157.105C201.79 155.505 200.49 150.505 204.59 151.805C207.39 152.705 213.59 160.205 214.19 153.405C220.99 157.405 225.29 165.805 230.99 171.205C235.09 175.105 240.69 179.305 237.39 185.505C233.19 193.305 224.89 196.905 217.29 200.305C209.99 203.605 211.49 212.905 215.39 218.505C217.608 221.571 220.663 223.932 224.19 225.305C227.89 226.905 228.59 228.805 229.39 232.605C230.29 236.805 229.29 238.505 225.69 240.705C222.152 242.874 218.478 244.811 214.69 246.505C206.49 250.105 197.99 250.305 189.29 251.505C186.19 251.905 183.29 252.805 181.69 249.805C179.69 246.405 179.49 240.505 178.69 236.705ZM177.39 220.405C175.29 219.305 170.39 222.905 167.79 223.105C163.59 223.405 160.89 223.305 157.09 225.505C150.09 229.705 144.19 235.105 138.59 241.005C132.19 247.605 125.89 254.305 119.59 260.905C116.69 263.905 113.79 266.905 110.89 269.805C108.59 272.105 106.39 275.405 103.49 277.105C103.59 275.105 104.89 273.705 105.29 271.905C105.59 270.805 105.09 269.905 105.29 268.905C105.39 268.605 106.19 267.405 106.39 267.005L107.59 264.005C107.99 263.005 107.89 262.005 108.39 261.005C108.79 260.005 109.99 259.305 110.39 258.205C111.59 255.205 109.59 253.805 106.49 253.905C107.69 247.905 108.19 244.905 114.49 242.805C120.532 240.908 126.363 238.395 131.89 235.305C136.79 232.505 140.89 228.405 145.59 225.305C149.79 222.505 155.09 219.505 155.09 213.805C157.49 215.405 159.69 216.805 162.49 215.205C164.79 213.805 165.09 212.705 167.79 212.505C169.99 212.305 171.29 212.205 173.29 213.205C175.59 214.305 175.89 215.105 177.19 211.805C178.69 213.105 182.59 218.405 182.39 220.505C182.29 221.705 182.19 222.205 180.69 222.505C178.79 222.705 178.89 221.205 177.39 220.405ZM167.79 535.605C166.79 537.105 162.59 536.805 160.99 536.805C155.99 536.705 154.29 532.605 152.09 528.605C148.69 522.305 143.59 509.105 149.19 502.505C153.59 497.305 162.29 503.905 165.29 507.805C167.89 511.205 167.09 516.405 167.39 520.505C167.59 523.905 169.79 532.505 167.79 535.605ZM154.29 537.805C152.29 539.805 145.89 539.405 143.29 539.805C138.595 540.541 133.952 541.576 129.39 542.905C125.99 543.905 122.69 546.705 121.79 542.005C121.09 538.005 121.39 533.305 121.49 529.305C121.59 525.005 121.99 520.705 122.39 516.405C122.69 513.505 121.99 508.205 124.39 505.905C126.39 504.005 131.39 503.805 134.09 503.205C138.49 502.205 142.99 500.805 147.49 501.305C144.89 508.505 144.59 516.005 147.49 523.105C148.19 525.105 155.49 536.605 154.29 537.805ZM120.99 509.305C119.89 520.105 118.79 530.905 119.79 541.805C119.89 542.405 120.59 545.405 120.29 545.905C119.99 546.405 117.19 546.605 116.59 546.805C114.09 547.405 111.59 548.005 109.19 548.505C104.29 549.505 103.69 546.405 102.79 541.905C100.79 532.305 104.69 521.805 107.09 512.505C108.29 508.005 109.09 507.505 113.59 507.105C116.59 506.905 121.39 504.705 120.99 509.305ZM102.19 549.505C100.29 551.205 98.49 543.205 98.29 542.405C97.69 539.205 97.99 535.905 97.99 532.605C97.99 527.505 97.59 522.405 97.59 517.305C97.59 514.505 95.49 508.905 98.79 507.505C100.653 507.149 102.575 507.252 104.39 507.805C106.19 509.005 105.49 509.705 104.99 511.805C103.79 516.405 102.79 520.905 101.79 525.605C100.79 530.105 99.79 534.505 100.29 539.105C100.39 540.605 103.39 548.505 102.19 549.505ZM161.39 499.305C165.89 498.005 166.19 501.505 166.19 504.805C165.49 504.205 158.99 499.905 161.39 499.305ZM100.89 255.805C99.79 257.605 92.79 258.105 90.79 258.605C86.89 259.505 82.89 260.505 78.99 261.505C71.59 263.305 64.39 265.405 56.89 266.405C61.09 259.805 62.29 254.005 61.59 245.705C60.7579 235.247 59.2211 224.856 56.99 214.605C54.59 204.505 51.89 194.405 49.19 184.405C47.89 179.505 46.49 174.605 44.79 169.805C43.39 166.005 41.19 161.105 43.59 157.205C49.59 161.605 54.39 166.305 57.79 172.905C61.49 180.005 64.59 187.305 68.89 194.105C70.79 197.205 73.09 200.005 75.19 203.105C76.39 204.905 77.29 207.505 78.89 209.005C80.69 210.705 82.59 211.605 83.69 208.605C84.79 205.405 81.29 199.205 80.19 196.305C77.69 189.205 75.19 182.005 73.19 174.705C71.59 168.805 68.99 161.605 69.89 155.405C70.79 149.205 74.99 153.605 77.09 156.505C81.49 162.405 84.09 169.305 86.99 176.105C89.59 182.305 92.69 188.205 95.69 194.205C96.69 196.305 98.09 201.705 100.69 202.305C104.59 203.205 104.19 197.705 103.89 195.505C101.39 180.805 94.99 166.805 93.69 151.805C93.59 151.105 92.69 145.505 93.49 145.105C94.89 144.205 96.89 149.805 97.49 151.205C100.574 158.439 103.114 165.893 105.09 173.505C106.89 179.905 108.49 186.405 110.39 192.805C111.49 196.305 112.69 199.805 113.99 203.205C115.09 206.305 116.19 211.705 119.09 213.805C123.19 216.705 137.89 209.805 139.39 216.005C140.49 220.405 126.79 224.005 123.89 225.305C120.09 227.105 116.29 229.005 112.49 230.805C109.59 232.105 105.39 232.705 103.29 235.205C101.09 237.905 100.69 241.605 100.69 244.905C100.49 247.405 102.19 253.605 100.89 255.805ZM91.59 304.105C91.39 305.505 90.29 307.305 89.79 308.705C88.79 311.405 87.89 314.605 86.49 317.105C85.29 319.305 83.49 321.205 82.29 323.405C81.19 325.505 80.99 327.905 79.69 330.005C78.19 332.405 75.79 334.105 74.29 336.505C73.5394 337.824 72.7043 339.094 71.79 340.305C68.1316 344.534 64.7257 348.975 61.59 353.605C60.89 354.805 57.19 360.105 55.69 360.405C52.69 361.005 56.19 356.705 56.79 355.805C61.09 349.305 64.89 342.505 69.09 336.005C73.09 329.605 77.19 323.305 81.09 316.905C84.29 311.605 86.39 304.105 91.59 300.405C91.69 301.636 91.69 302.874 91.59 304.105ZM232.09 244.705C234.59 255.005 237.59 265.005 240.39 275.205C242.99 284.705 246.49 294.805 247.59 304.505C248.738 314.28 251.055 323.882 254.49 333.105C255.99 337.305 257.59 341.605 259.29 345.805C260.19 348.105 261.19 350.405 262.29 352.605C263.09 354.305 265.19 357.205 265.29 359.005C265.39 360.505 265.89 359.905 264.39 361.005C262.89 362.205 260.29 361.705 258.49 361.905C253.89 362.405 249.39 364.205 244.89 365.305C236.19 367.505 225.89 369.205 217.09 367.705C213.39 367.105 209.49 366.505 205.79 365.705C201.29 364.705 200.29 362.805 199.39 358.305C197.39 348.505 195.59 338.805 193.89 329.005C191.89 317.305 189.69 305.605 188.19 293.905C186.59 282.005 185.49 270.105 183.09 258.305C192.99 259.905 202.19 261.805 212.09 259.105C220.37 257.076 227.539 251.913 232.09 244.705ZM270.69 372.105C272.89 376.605 267.59 380.705 264.99 384.205C261.59 388.805 258.39 393.605 254.49 397.805C253.29 393.105 252.29 387.705 249.09 383.805C245.09 378.805 240.39 380.905 235.39 378.505C240.59 376.005 247.19 376.905 252.69 374.705C258.09 372.505 263.59 370.705 268.69 367.905C269.29 369.305 269.99 370.705 270.69 372.105ZM251.39 478.105C248.09 478.305 250.29 471.305 250.49 469.605C251.09 464.805 251.69 460.105 252.19 455.305C254.89 462.505 257.69 469.705 260.39 476.905C257.39 477.305 254.49 477.905 251.39 478.105ZM245.99 512.605C246.49 513.605 248.59 517.005 246.89 517.605C244.59 518.505 244.39 512.905 245.99 512.605ZM242.09 434.905C231.49 443.305 221.09 451.805 209.59 459.005C207.09 460.605 204.59 461.305 202.89 458.105C201.59 455.605 202.99 452.805 203.79 450.405C205.89 444.205 209.59 438.805 213.79 433.805C221.99 423.705 231.79 415.105 244.29 411.205C246.29 410.605 249.49 408.605 250.19 411.305C250.59 412.905 248.79 416.905 248.49 418.405C246.99 424.605 247.29 430.805 242.09 434.905ZM272.49 496.405C272.69 503.605 253.19 497.805 250.69 496.505C253.29 495.705 272.39 493.205 272.49 496.405ZM279.69 496.505C280.89 496.805 285.29 497.205 283.69 498.705C282.19 500.105 275.49 499.505 273.69 499.705C274.89 495.705 275.79 495.405 279.69 496.505ZM276.09 486.905C275.69 488.505 275.49 490.905 274.09 492.005C272.29 493.405 268.49 492.505 266.49 492.505C263.09 492.505 259.69 492.705 256.29 493.005C254.99 493.105 249.69 494.705 248.49 493.605C247.59 492.805 247.89 489.105 248.59 488.205C249.89 486.505 252.99 487.105 254.99 487.005C261.99 486.905 268.99 486.905 276.09 486.905ZM271.59 460.405C270.687 459.367 270.128 458.074 269.99 456.705C269.49 454.305 268.39 452.205 267.69 449.905C266.19 444.805 270.99 445.305 274.49 447.105C283.59 452.005 281.39 468.905 279.19 476.905C275.89 474.505 274.69 473.405 273.59 469.505C273.19 468.005 272.69 466.605 272.19 465.105C271.79 464.105 272.09 461.205 271.59 460.405ZM272.39 377.905C274.89 377.605 277.29 385.505 276.49 387.205C274.99 390.705 269.29 393.805 266.39 396.005C264.51 397.615 262.54 399.118 260.49 400.505C258.59 401.705 257.49 401.005 255.69 401.605C253.09 402.405 252.49 405.205 249.89 406.305C246.19 407.905 241.69 408.405 237.79 409.905C233.352 411.581 228.522 411.929 223.89 410.905C216.79 409.705 208.49 406.205 209.19 397.605C210.29 382.405 240.49 374.605 248.69 387.505C250.79 390.905 250.79 394.805 252.19 398.405C253.69 402.305 255.19 400.805 257.39 397.905C260.39 394.105 263.09 390.205 265.99 386.305C266.89 385.005 270.49 378.105 272.39 377.905ZM87.59 525.705C87.49 528.305 87.59 530.905 86.69 533.405C85.79 535.905 83.99 537.905 82.89 540.305C80.79 545.205 80.79 551.105 80.89 556.405C81.09 568.605 83.99 580.405 85.49 592.505C80.39 592.505 75.19 592.505 70.19 591.105C65.79 589.805 65.09 586.605 63.79 582.505C60.29 571.105 56.49 559.805 55.39 547.805C54.89 542.105 54.59 536.405 54.39 530.705C54.19 525.705 55.29 523.505 59.79 521.005C69.59 515.605 79.79 511.105 89.49 505.505C88.59 512.205 87.99 518.905 87.59 525.705ZM506.59 126.005C504.19 125.605 501.79 125.305 499.39 125.005C498.09 124.805 494.19 125.105 493.29 124.205C492.19 123.205 494.09 115.805 494.19 114.305C494.79 104.805 494.09 95.005 493.19 85.505C491.59 68.305 486.19 52.405 473.79 40.005C467.59 33.805 460.59 29.005 452.19 26.605C447.29 25.205 442.19 24.505 437.19 23.205C433.19 22.105 429.49 20.905 425.29 20.505C416.99 19.605 409.49 16.505 401.39 14.705C395.49 13.405 385.89 10.205 382.09 16.905C379.208 13.5042 375.877 10.5103 372.19 8.00499C368.49 5.50499 367.89 2.90499 363.49 5.90499C354.79 11.605 346.59 18.505 338.49 25.005C330.89 31.105 323.59 37.405 315.59 43.005C307.49 48.705 308.99 58.305 312.79 66.305C319.99 81.305 331.09 94.205 340.79 107.105C346.89 115.205 352.99 123.305 358.99 131.305C364.79 139.005 369.79 148.005 376.49 154.905C380.79 159.305 385.79 153.605 389.69 150.905C394.49 147.605 399.19 144.205 403.89 140.905C413.89 134.105 424.49 127.705 434.99 121.705C435.79 123.905 436.49 126.005 437.29 128.205C434.99 128.405 431.89 127.905 430.69 130.305C428.99 133.805 433.09 134.305 433.89 136.305C434.49 138.105 431.89 142.905 431.09 144.505C429.269 148.114 426.946 151.447 424.19 154.405C413.49 166.405 399.99 175.005 386.19 183.205C371.49 192.005 355.69 197.305 339.59 202.905C331.39 205.805 322.89 207.105 314.49 208.905C306.39 210.705 298.19 213.005 289.89 213.705C272.89 215.105 254.79 216.105 237.99 212.405C236.19 212.005 234.19 211.105 232.29 211.005C230.79 210.905 229.69 211.505 228.29 211.605C225.29 211.805 223.49 209.105 221.09 211.605C219.89 212.905 219.89 215.005 218.19 212.605C216.09 209.605 221.49 209.005 223.59 208.205C230.39 205.305 235.89 199.505 240.29 193.705C244.59 187.805 245.29 181.605 242.59 174.705C239.99 167.805 233.99 163.205 229.39 157.605C227.19 154.905 225.19 152.105 222.79 149.505C221.49 148.205 219.49 146.905 219.39 145.505C219.29 143.905 220.19 143.105 219.69 141.205C219.59 140.705 218.89 140.405 218.79 139.905C218.74 139.072 218.74 138.238 218.79 137.405C218.491 135.658 217.77 134.01 216.69 132.605C215.99 131.605 214.99 129.605 214.09 128.905C212.49 127.605 210.29 128.105 208.59 126.805C205.99 124.705 205.09 120.305 202.79 117.705C199.49 114.105 198.89 117.705 195.39 116.605C192.49 115.605 192.49 111.205 190.09 109.705C186.69 107.605 183.89 111.505 180.89 112.305C176.99 113.405 178.49 109.005 174.99 108.605C171.79 108.205 167.49 114.605 165.89 116.905C164.29 115.005 162.49 111.805 159.69 113.005C156.69 114.205 156.09 119.805 153.89 121.805C153.09 122.505 153.29 123.005 152.29 123.305C151.09 123.705 149.39 121.905 147.89 122.505C144.69 123.605 145.09 127.905 145.09 130.605C141.29 130.005 138.69 129.805 137.39 133.805C136.19 137.805 135.69 136.005 131.69 137.305C128.29 138.405 127.79 141.705 127.19 144.905C126.947 146.456 127.12 148.043 127.69 149.505C128.39 151.805 128.39 151.705 127.29 153.905C125.39 157.705 125.29 161.905 124.99 166.005C124.69 170.405 123.89 174.505 125.19 178.805C125.99 181.505 125.99 185.105 128.69 186.705C129.69 187.305 131.49 187.005 132.39 187.605C134.09 188.705 133.59 190.405 134.69 192.105C135.49 193.305 136.89 193.505 137.89 194.505C138.89 195.605 138.99 196.905 139.59 198.205C141.29 202.105 142.99 204.005 137.29 204.305C133.79 204.405 130.09 205.505 126.59 205.205C122.49 204.805 121.49 202.505 120.19 199.005C113.59 181.405 110.09 162.305 101.39 145.505C99.49 141.805 91.69 126.805 88.39 137.705C85.59 146.905 89.29 158.205 90.69 167.405C86.29 163.405 84.69 156.305 81.29 151.405C78.79 147.805 71.09 139.005 66.59 144.105C62.99 148.105 63.89 156.505 64.59 161.205C65.59 168.705 67.99 175.905 69.79 183.305C67.59 180.505 66.59 177.005 65.09 173.905C63.1991 169.903 60.886 166.115 58.19 162.605C55.8844 159.515 53.271 156.667 50.39 154.105C48.19 152.105 44.39 147.705 41.29 147.505C33.39 146.905 35.89 161.405 37.09 165.505C39.59 174.105 42.29 182.405 44.19 191.205C47.99 208.305 52.59 225.005 55.39 242.405C55.99 246.205 56.79 249.305 55.19 253.005C53.89 256.305 52.49 260.105 49.99 262.605C44.5031 268.205 39.6719 274.412 35.59 281.105C31.09 288.405 26.49 295.805 22.89 303.605C21.19 307.205 19.79 311.005 17.89 314.505C16.19 317.605 14.09 320.105 12.79 323.505C6.89 339.905 2.49 356.005 0.490002 373.405C-1.11 387.705 0.390001 406.605 17.59 410.005C25.49 411.505 32.59 408.005 39.69 405.105C47.09 402.105 52.39 397.205 58.39 392.105C65.89 385.705 73.59 379.605 81.19 373.305C88.79 367.005 95.69 360.005 103.29 353.605C110.645 347.317 117.53 340.499 123.89 333.205C130.29 325.905 135.39 317.905 141.59 310.505C141.59 320.005 140.19 329.505 139.79 339.005C139.39 347.705 139.39 356.505 139.79 365.205C140.19 373.905 137.79 382.205 137.79 391.005C137.79 399.505 137.39 408.005 137.29 416.405C137.19 420.205 136.49 424.505 137.89 428.205C138.99 430.905 142.29 431.805 145.19 432.505C149.59 433.605 162.89 431.405 164.79 436.105C165.89 438.705 164.79 443.305 164.89 446.205C164.99 450.905 165.19 455.505 165.39 460.205C165.59 465.005 165.69 469.905 165.89 474.705C166.09 479.005 166.89 483.705 166.39 487.905C165.99 491.505 163.89 491.005 160.49 491.205C155.49 491.505 150.39 491.705 145.39 491.905C137.99 492.205 130.29 492.105 123.19 492.905C120.19 493.305 116.99 493.105 113.79 493.705C109.951 494.324 106.076 494.691 102.19 494.805C98.99 495.005 94.79 494.705 92.29 497.105C91.39 497.905 91.19 498.905 90.59 499.805C89.39 501.505 90.09 501.105 88.19 501.505C80.79 502.897 73.5034 504.836 66.39 507.305C62.69 508.605 59.39 510.305 55.69 511.505C52.49 512.505 50.09 513.805 48.49 517.005C45.69 522.605 46.39 530.805 46.59 536.905C46.89 546.405 48.99 555.405 51.29 564.605C53.69 574.105 55.49 583.905 60.09 592.705C61.59 595.605 63.19 599.305 66.29 600.805C70.29 602.705 76.39 601.605 80.79 601.605C83.69 601.605 91.49 602.605 93.69 600.205C95.79 597.805 93.69 591.105 93.39 588.205C92.39 577.905 90.49 567.505 90.49 557.105C92.89 560.605 96.99 566.705 101.09 561.305C102.09 560.005 101.69 559.405 103.49 558.605C104.843 558.155 106.265 557.951 107.69 558.005C109.19 558.105 109.69 558.705 111.09 558.405C112.29 558.105 113.69 557.105 114.99 556.705C132.09 552.605 149.09 548.305 166.29 544.605C170.79 543.605 170.19 547.105 170.49 551.105C170.79 555.405 170.19 559.805 170.79 564.105C171.456 567.77 171.524 571.518 170.99 575.205C170.09 579.605 170.69 583.305 171.59 587.705C174.89 604.605 174.29 623.005 175.09 640.205C175.49 649.205 174.69 658.305 175.49 667.205C175.79 670.605 177.69 672.405 178.49 675.505C179.39 679.005 176.99 683.505 176.29 686.905C174.79 693.705 172.29 703.505 176.99 709.505C179.49 712.705 182.79 713.205 186.59 714.305C191.09 715.605 195.49 717.105 199.99 718.305C216.39 722.805 234.19 723.705 251.09 726.205C255.104 726.705 259.157 726.805 263.19 726.505C265.79 726.305 272.09 727.205 274.19 725.605C275.29 724.805 274.79 723.805 275.29 722.805C276.078 721.569 277.183 720.568 278.49 719.905C280.79 718.405 283.49 717.605 283.89 714.505C284.89 707.105 275.59 703.205 270.59 699.905C264.29 695.805 256.59 694.205 249.89 690.905C246.19 689.105 242.59 687.005 238.99 684.905C237.49 684.005 234.29 683.005 233.19 681.505C232.09 680.005 233.19 678.005 233.59 675.905C235.49 667.305 234.79 658.505 235.79 649.805C236.79 641.105 236.49 632.305 236.79 623.505C237.09 614.505 237.89 605.505 238.39 596.505C238.89 588.205 239.49 579.705 239.49 571.405C239.59 563.705 240.59 556.105 240.89 548.305C240.99 545.705 240.49 540.905 242.29 538.605C243.79 536.605 248.89 536.905 251.29 536.505C257.69 535.605 263.79 534.805 270.09 534.205C285.19 532.905 301.89 531.905 316.09 526.605C321.99 524.405 329.79 521.505 331.69 514.705C333.89 507.005 330.99 497.405 330.89 489.505C330.79 481.005 328.29 472.805 326.49 464.605C324.49 455.805 323.29 446.805 321.09 438.005C319.09 429.905 315.99 422.805 312.89 415.105C311.69 412.005 304.69 401.305 306.89 398.705C308.09 397.305 312.19 396.905 313.89 396.305C317.592 394.945 321.172 393.272 324.59 391.305C329.09 388.605 338.99 384.205 339.39 378.305C339.79 372.605 334.29 366.905 331.39 362.505C326.79 355.305 321.09 349.105 316.79 341.805C307.99 327.005 301.09 310.905 294.69 295.005C291.39 286.705 290.29 278.805 289.69 270.005C299.39 270.005 309.29 271.205 318.89 269.905C329.39 268.405 339.89 265.905 350.29 263.905C369.19 260.205 387.39 255.905 404.99 247.505C421.39 239.605 438.09 231.005 451.69 218.505C458.69 212.005 465.89 205.505 471.99 198.105C478.19 190.505 482.89 181.905 487.79 173.405C493.043 163.982 497.363 154.068 500.69 143.805C501.39 141.705 501.39 139.105 502.19 137.105C503.19 134.905 504.89 134.805 506.79 133.705C509.39 132.305 511.09 126.805 506.59 126.005Z" fill="#2A3844"/>
<path fill-rule="evenodd" clip-rule="evenodd" d="M280.59 20.705C282.79 22.605 292.39 29.305 295.49 27.705C299.29 25.705 293.29 19.605 291.69 18.105C289.59 16.205 282.19 10.405 279.39 11.005C273.69 12.005 278.59 19.005 280.59 20.705Z" fill="#2A3844"/>
<path fill-rule="evenodd" clip-rule="evenodd" d="M285.39 89.605C286.69 87.105 289.99 86.205 291.49 83.805C293.39 80.905 294.19 78.405 293.49 74.905C288.79 76.505 283.39 81.305 280.19 85.105C277.49 88.305 273.79 94.905 280.69 94.905C280.59 94.005 280.59 93.005 280.49 92.105C281.466 92.2558 282.464 92.0955 283.344 91.6467C284.224 91.198 284.939 90.4836 285.39 89.605Z" fill="#2A3844"/>
<path fill-rule="evenodd" clip-rule="evenodd" d="M262.69 48.505C265.79 49.405 268.29 49.305 271.39 49.305C273.69 49.405 276.79 50.605 278.59 49.205C276.99 48.305 278.99 48.205 278.59 47.305C278.29 46.505 277.59 46.805 277.09 46.205C275.19 44.005 273.59 44.005 270.59 43.605C268.29 43.205 264.89 42.405 262.69 43.605C260.49 44.705 259.59 47.605 262.69 48.505Z" fill="#2A3844"/>
<path fill-rule="evenodd" clip-rule="evenodd" d="M306.29 116.505C308.29 114.805 310.39 110.005 310.79 107.605C310.99 106.605 310.29 105.905 310.29 105.205C310.49 103.805 313.29 101.205 310.29 100.105C307.69 99.105 305.29 106.705 304.69 108.405C303.99 110.105 302.19 113.405 302.79 115.005C303.29 116.305 304.99 117.605 306.29 116.505Z" fill="#2A3844"/>
<path fill-rule="evenodd" clip-rule="evenodd" d="M329.99 13.605C331.79 11.905 332.89 10.105 332.69 7.805C332.59 6.005 331.19 -0.194996 329.69 0.00500419C324.69 0.505004 326.89 16.405 329.99 13.605Z" fill="#2A3844"/>
<path fill-rule="evenodd" clip-rule="evenodd" d="M223.59 291.105C223.19 289.605 221.69 280.305 219.09 280.905C217.09 281.405 219.19 289.505 219.29 290.605C219.49 292.805 215.19 292.805 213.19 292.505C209.99 292.005 210.29 290.205 209.79 287.305C209.59 286.205 208.89 281.305 206.59 283.105C205.09 284.305 206.19 290.405 206.29 291.805C206.69 296.605 207.29 304.805 210.09 309.205C211.19 310.905 212.29 311.805 213.49 309.605C214.69 307.305 211.99 300.405 211.49 298.105C213.79 298.305 220.29 297.605 221.69 299.905C222.89 302.005 220.99 308.205 224.99 308.705C227.39 309.005 226.89 306.205 226.69 304.105C225.953 299.706 224.917 295.363 223.59 291.105Z" fill="#2A3844"/>
<path fill-rule="evenodd" clip-rule="evenodd" d="M229.69 289.005C227.09 290.205 230.39 307.505 234.19 306.905C238.69 306.205 232.19 287.805 229.69 289.005Z" fill="#2A3844"/>
<path fill-rule="evenodd" clip-rule="evenodd" d="M226.79 283.205C226.49 287.105 231.49 288.505 231.79 284.305C231.89 281.105 227.09 279.105 226.79 283.205Z" fill="#2A3844"/>
<path fill-rule="evenodd" clip-rule="evenodd" d="M198.99 179.905C201.29 188.505 222.39 192.205 219.49 180.605C218.09 174.805 212.19 180.005 207.99 179.305C205.29 178.805 197.29 173.805 198.99 179.905Z" fill="#2A3844"/>
<path fill-rule="evenodd" clip-rule="evenodd" d="M193.69 164.505C194.69 159.905 184.59 154.805 180.89 156.105C175.49 158.005 175.59 169.805 179.69 173.005C180.19 173.405 181.89 174.405 182.69 173.605C183.99 172.405 182.59 172.705 182.29 171.405C181.79 169.405 180.29 166.905 181.79 164.605C184.69 160.405 192.29 171.105 193.69 164.505Z" fill="#2A3844"/>
<path fill-rule="evenodd" clip-rule="evenodd" d="M162.89 186.905C159.29 186.705 156.29 192.305 161.59 191.905C162.59 191.805 164.79 191.605 165.39 190.505C166.49 188.705 164.49 187.005 162.89 186.905Z" fill="#2A3844"/>
<path fill-rule="evenodd" clip-rule="evenodd" d="M339.29 52.405C338.09 50.605 335.39 47.705 333.19 49.505C331.19 51.105 331.59 55.105 332.29 57.005C334.39 62.305 339.19 67.005 344.69 64.005C342.79 60.105 341.79 55.905 339.29 52.405Z" fill="#2A3844"/>
</svg>
